<svg width="1403" height="1011" viewBox="0 0 1403 1011" fill="none" xmlns="http://www.w3.org/2000/svg">
<g clip-path="url(#clip0_101_51)">
<path d="M875.843 391.275C768.823 391.275 665.537 445.092 585.009 542.82C473.878 677.678 450.556 745.261 438.023 781.57C437.372 783.455 436.753 785.264 436.144 786.996C420.274 832.347 421.03 871.433 438.401 903.163C459.019 940.829 503.012 967.867 569.163 983.532C627.729 997.399 716.073 1005.04 817.928 1005.04C817.939 1005.04 817.96 1005.04 817.97 1005.04C978.689 1005.04 1174.12 985.19 1248.45 940.829C1288.65 916.844 1309.55 855.912 1302.99 781.804C1292.37 661.768 1204.67 493.124 992.457 412.88C954.541 398.541 915.309 391.275 875.843 391.275ZM817.97 1007.51C817.953 1007.51 817.949 1007.51 817.928 1007.51C715.887 1007.51 627.341 999.841 568.593 985.932C501.739 970.099 457.203 942.651 436.239 904.345C418.518 871.979 417.702 832.221 433.818 786.181C434.423 784.449 435.042 782.647 435.693 780.765C448.275 744.31 471.692 676.454 583.102 541.249C664.109 442.944 768.071 388.809 875.843 388.809C915.607 388.809 955.135 396.13 993.328 410.571C1088.54 446.576 1168.17 504.454 1223.59 577.95C1270.23 639.803 1299.3 712.122 1305.45 781.587C1312.09 856.643 1290.74 918.471 1249.72 942.949C1174.98 987.544 979.025 1007.51 817.97 1007.51Z" fill="#100F0D"/>
<path d="M1376.47 720.214C1371.68 722.264 1367.17 725.888 1365.46 729.323C1363.47 732.006 1363.02 736.092 1364.28 739.23C1364.96 740.937 1366.42 743.075 1369.49 743.586C1374.75 744.621 1376.98 739.041 1377.71 736.589C1379.27 731.324 1378.83 724.8 1376.47 720.214ZM1370.78 746.192C1370.22 746.192 1369.64 746.129 1369.05 746.01C1365.81 745.475 1363.29 743.39 1361.99 740.147C1360.41 736.201 1360.97 731.216 1363.36 728.029C1365.21 724.296 1369.99 720.375 1375.12 718.097C1374.08 716.757 1372.8 715.715 1371.29 715.113C1367.83 713.731 1361.55 713.459 1356.75 715.683C1354.26 716.841 1352.64 718.472 1351.95 720.525C1351.74 721.172 1351.04 721.526 1350.39 721.309C1349.75 721.092 1349.4 720.392 1349.61 719.748C1350.51 717.062 1352.62 714.879 1355.71 713.445C1360.48 711.234 1367.57 710.964 1372.21 712.825C1374.37 713.689 1376.13 715.218 1377.5 717.17C1378.39 716.876 1379.27 716.635 1380.15 716.46C1385.38 714.707 1389.91 714.812 1393.45 716.813C1397.25 718.965 1399.9 723.31 1401.32 729.736C1401.47 730.401 1401.05 731.058 1400.39 731.205C1399.72 731.352 1399.06 730.936 1398.92 730.271C1397.64 724.555 1395.39 720.752 1392.23 718.961C1389.32 717.314 1385.47 717.275 1380.78 718.842C1380.12 718.972 1379.46 719.143 1378.79 719.353C1381.36 724.541 1381.77 731.573 1380.07 737.292C1378.38 742.98 1374.98 746.188 1370.78 746.192Z" fill="#100F0D"/>
<path d="M338.483 781.696C337.679 781.696 336.836 781.874 335.989 782.235C330.972 784.372 329.082 788.535 328.379 791.648C327.779 794.318 327.807 797.288 328.369 800.118C329.506 800.097 330.656 799.96 331.803 799.698C337.351 798.355 342.514 794.01 343.541 789.815C344.093 786.866 343.355 784.201 341.555 782.756C340.679 782.053 339.621 781.696 338.483 781.696ZM346.641 817.448C340.59 817.448 334.951 815.052 330.656 810.616C328.749 808.468 327.306 805.61 326.432 802.517C323.24 802.238 320.174 801.143 317.468 799.268C312.748 796 309.564 790.655 308.732 784.606C307.792 777.11 310.378 772.495 314.428 766.31C314.804 765.74 315.568 765.583 316.138 765.957C316.708 766.331 316.866 767.094 316.493 767.664C312.642 773.541 310.326 777.487 311.18 784.284C311.915 789.637 314.72 794.367 318.871 797.239C320.995 798.708 323.371 799.628 325.855 799.971C325.335 796.983 325.345 793.898 325.974 791.106C327.163 785.838 330.291 781.979 335.022 779.964C337.886 778.743 340.906 779.069 343.099 780.835C345.62 782.857 346.688 786.408 345.953 790.336C344.687 795.5 338.856 800.527 332.368 802.101C331.243 802.353 330.113 802.51 328.996 802.563C329.773 805.005 330.952 807.237 332.464 808.944C336.495 813.1 341.932 815.227 347.687 814.957C353.759 814.646 359.399 811.739 363.16 806.971C363.583 806.439 364.36 806.348 364.892 806.768C365.427 807.188 365.518 807.968 365.095 808.499C360.893 813.824 354.595 817.074 347.813 817.417C347.421 817.438 347.028 817.448 346.641 817.448Z" fill="#100F0D"/>
<path d="M384.265 77.3311C384.22 77.4151 384.178 77.499 384.132 77.583C381.113 83.4409 382.281 89.5086 387.421 94.6689C391.168 98.4302 394.706 99.8044 397.116 98.4453C399.646 97.0218 400.755 92.755 399.702 88.5196C399.079 86.0061 396.137 77.8692 384.265 77.3311ZM356.667 110.613C355.988 110.613 355.436 110.063 355.432 109.384C355.387 98.8619 359.452 88.3199 366.04 81.8796C370.697 77.3287 376.498 74.9044 382.869 74.84C387.862 67.0063 398.288 62.184 407.441 63.7012C412.805 64.5915 417.503 67.5265 422.048 70.3633C430.452 75.6145 437.712 80.1483 447.047 70.2993C447.516 69.8032 448.292 69.7836 448.789 70.2524C449.283 70.7208 449.307 71.5027 448.838 71.9963C438.118 83.3104 429.287 77.795 420.74 72.4549C416.405 69.7465 411.916 66.942 407.035 66.1332C399.411 64.8752 390.514 68.7205 385.784 74.9684C395.636 75.9451 400.667 82.1657 402.095 87.9228C403.428 93.285 401.843 98.6128 398.33 100.594C396.304 101.738 391.959 102.717 385.675 96.4103C380.063 90.7767 378.569 83.8851 381.501 77.3584C376.285 77.7138 371.673 79.8226 367.765 83.6434C361.635 89.6345 357.857 99.4934 357.899 109.375C357.902 110.055 357.349 110.61 356.667 110.613Z" fill="#100F0D"/>
<path d="M1371.13 423.315C1366.19 423.315 1361.53 425.438 1358.65 428.993C1355.81 432.508 1354.88 437.095 1355.98 442.251C1357.48 449.311 1363.25 453.872 1370.68 453.872C1372.84 453.872 1375.01 453.48 1377.14 452.707C1380.78 451.382 1384.19 447.985 1386.02 443.843C1387.58 440.316 1387.79 436.801 1386.62 433.932C1383.81 427.289 1378.02 423.315 1371.13 423.315ZM1370.68 456.339C1362.04 456.339 1355.32 451.011 1353.56 442.762C1351.97 435.303 1354.41 430.311 1356.74 427.443C1360.07 423.311 1365.46 420.849 1371.13 420.849C1379.04 420.849 1385.68 425.382 1388.9 432.984C1390.34 436.489 1390.11 440.698 1388.28 444.84C1386.18 449.576 1382.24 453.477 1377.98 455.023C1375.58 455.898 1373.13 456.339 1370.68 456.339Z" fill="#F8A218"/>
<path d="M136.427 760.416C131.493 760.416 126.83 762.542 123.954 766.097C121.105 769.616 120.18 774.199 121.278 779.352C122.782 786.411 128.555 790.976 135.98 790.976C138.141 790.976 140.315 790.585 142.441 789.811C146.085 788.486 149.489 785.089 151.322 780.95C152.884 777.424 153.096 773.901 151.921 771.033C149.112 764.393 143.317 760.416 136.427 760.416ZM135.98 793.446C127.341 793.446 120.621 788.115 118.865 779.866C117.274 772.404 119.711 767.416 122.038 764.543C125.377 760.415 130.758 757.949 136.427 757.949C144.341 757.949 150.984 762.486 154.201 770.085C155.637 773.597 155.415 777.802 153.579 781.947C151.482 786.684 147.538 790.585 143.282 792.131C140.885 793.002 138.43 793.446 135.98 793.446Z" fill="#092B5E"/>
<path d="M1355.22 536.74C1352.94 536.74 1350.74 537.415 1348.87 538.688L1312.46 563.418C1309.96 565.114 1308.27 567.696 1307.69 570.69C1307.12 573.681 1307.75 576.707 1309.44 579.209L1334.17 615.605C1336.28 618.718 1339.81 620.576 1343.61 620.576C1345.89 620.576 1348.09 619.897 1349.97 618.62L1386.37 593.901C1391.55 590.382 1392.91 583.295 1389.39 578.103L1364.66 541.714C1362.55 538.601 1359.01 536.74 1355.22 536.74ZM1343.61 623.042C1338.99 623.042 1334.7 620.779 1332.13 616.994L1307.4 580.597C1305.34 577.55 1304.58 573.867 1305.27 570.225C1305.97 566.587 1308.03 563.442 1311.07 561.375L1347.48 536.645C1349.77 535.096 1352.44 534.273 1355.22 534.273C1359.83 534.273 1364.13 536.537 1366.7 540.325L1391.43 576.721C1395.71 583.032 1394.06 591.656 1387.76 595.944L1351.36 620.663C1349.06 622.22 1346.38 623.042 1343.61 623.042Z" fill="#092B5E"/>
<path d="M251.301 871.706C249.14 871.706 247.349 872.448 246.128 873.854C244.547 875.68 243.945 878.591 244.436 882.057L251.59 932.59C252.332 937.83 255.038 940.961 258.83 940.961C260.927 940.961 263.251 940.006 265.547 938.208L305.736 906.741C308.97 904.208 310.539 901.287 310.144 898.52C309.752 895.753 307.436 893.381 303.619 891.845L256.277 872.783C254.503 872.066 252.831 871.706 251.301 871.706ZM258.83 943.427C253.773 943.427 250.065 939.404 249.147 932.94L241.994 882.404C241.391 878.157 242.178 874.644 244.265 872.238C247.056 869.023 251.883 868.355 257.199 870.496L304.542 889.558C309.209 891.436 312.066 894.501 312.589 898.174C313.11 901.85 311.217 905.583 307.255 908.683L267.067 940.146C264.334 942.291 261.484 943.427 258.83 943.427Z" fill="#F8A218"/>
<path d="M641.268 26.9617C639.4 26.9617 637.283 27.6474 635.145 28.9424L591.477 55.3718C587.961 57.5005 586.058 60.2113 586.117 63.0057C586.177 65.8005 588.192 68.4298 591.792 70.413L636.524 95.0019C640.733 97.3133 644.665 97.2713 646.999 94.8886C648.633 93.2189 649.462 90.5623 649.392 87.2054L648.325 36.1866C648.209 30.4963 645.505 26.9617 641.268 26.9617ZM642.384 99.1953C640.159 99.1953 637.787 98.5121 635.334 97.1628L590.606 72.5735C586.198 70.1513 583.727 66.7699 583.65 63.0575C583.57 59.3455 585.897 55.8675 590.2 53.2627L633.868 26.831C636.429 25.282 638.917 24.4951 641.268 24.4951C646.908 24.4951 650.648 29.0632 650.792 36.1348L651.862 87.156C651.943 91.1888 650.872 94.4594 648.762 96.6153C647.107 98.3022 644.903 99.1953 642.384 99.1953Z" fill="#FBC363"/>
<mask id="mask0_101_51" style="mask-type:luminance" maskUnits="userSpaceOnUse" x="1" y="153" width="635" height="568">
<path d="M13.3301 385.313C0.906957 439.575 -15.1973 590.459 40.1479 648.478C95.4929 706.489 137.45 714.525 232.068 716.309C326.692 718.09 374.003 723.439 443.628 718.978C513.257 714.525 622.156 712.066 633.765 554.755C654.726 270.618 441.281 139.517 269.889 154.689C98.5001 169.861 36.7657 282.951 13.3301 385.313Z" fill="white"/>
</mask>
<g mask="url(#mask0_101_51)">
<path d="M333.396 289.678C338.303 297.709 342.314 311.993 344.552 327.611C346.118 338.541 349.017 339.66 359.725 344.569C370.438 349.477 372.898 358.846 367.093 364.202C358.829 371.828 358.836 367.662 357.724 376.253C356.975 381.98 358.528 386.556 350.821 384.089C347.793 383.12 341.535 379.395 340.644 380.08C337.975 382.141 338.794 389.946 348.97 395.805C352.678 397.939 355.754 397.656 352.476 414.633C349.618 429.417 331.721 431.701 313.979 428.35C296.237 425.005 299.92 438.393 292.892 457.473C285.861 476.549 284.857 487.26 294.562 495.292C304.272 503.328 311.971 541.816 310.967 551.188C309.963 560.56 276.487 579.972 248.034 548.508C232.638 527.092 215.229 485.921 215.229 485.921C215.229 485.921 233.304 460.817 232.971 436.385C232.638 411.953 222.259 319.908 256.068 293.802C289.877 267.698 330.046 283.21 333.396 289.678Z" fill="white"/>
<path d="M216.629 486.074C218.888 491.328 234.923 528.165 249.032 547.794C261.529 561.602 274.384 564.519 282.954 564.519C297.842 564.519 309.229 555.788 309.737 551.058C310.707 542.004 302.934 503.831 293.771 496.247C283.154 487.459 284.861 475.691 291.729 457.049C293.601 451.976 294.697 447.32 295.668 443.213C297.941 433.576 299.586 426.61 309.121 426.61C310.633 426.61 312.298 426.785 314.205 427.146C318.872 428.024 323.323 428.472 327.428 428.472C337.061 428.472 349.016 426.03 351.262 414.402C354.064 399.887 352.207 398.918 349.398 397.445C349.057 397.267 348.707 397.085 348.35 396.875C342.261 393.373 338.438 388.521 338.124 383.907C337.983 381.829 338.625 380.084 339.885 379.107C340.956 378.278 342.819 379.086 346.763 380.976C348.392 381.756 350.072 382.557 351.192 382.917C352.49 383.333 353.533 383.543 354.288 383.543C355.751 383.543 356.02 382.942 356.234 379.254C356.29 378.268 356.353 377.204 356.496 376.099C357.238 370.383 357.532 369.767 360.411 367.875C361.629 367.077 363.466 365.874 366.251 363.299C368.332 361.382 369.239 358.839 368.812 356.134C368.161 352.055 364.571 348.15 359.208 345.693L358.581 345.407C348.392 340.74 344.958 339.171 343.327 327.788C341.01 311.617 337.004 297.962 332.339 290.323C330.773 287.309 317.617 280.417 299.026 280.417C288.258 280.417 272.196 282.911 256.817 294.783C228.221 316.866 231.869 388.262 233.623 422.577C233.907 428.143 234.151 432.953 234.201 436.371C234.511 459.183 219.387 482.093 216.629 486.074ZM282.954 566.986C273.883 566.986 260.306 563.925 247.115 549.34C231.729 527.945 214.263 486.819 214.09 486.406C213.923 486.008 213.972 485.556 214.223 485.203C214.404 484.958 232.057 460.138 231.734 436.406C231.687 433.033 231.443 428.244 231.159 422.703C229.383 387.969 225.69 315.702 255.31 292.832C271.239 280.534 287.873 277.951 299.026 277.951C317.146 277.951 332.13 284.562 334.485 289.115C339.279 296.951 343.406 310.949 345.769 327.44C347.21 337.487 349.588 338.577 359.61 343.162L360.236 343.451C366.443 346.295 370.456 350.775 371.243 355.746C371.81 359.29 370.631 362.617 367.926 365.111C364.991 367.822 363.049 369.092 361.769 369.939C359.638 371.334 359.599 371.359 358.938 376.417C358.805 377.463 358.746 378.467 358.697 379.394C358.473 383.284 358.112 387.727 350.44 385.268C349.161 384.859 347.4 384.016 345.698 383.2C344.213 382.49 342.037 381.448 341.181 381.262C340.734 381.777 340.512 382.676 340.586 383.739C340.786 386.667 343.253 391.096 349.583 394.741C349.908 394.927 350.233 395.095 350.541 395.262C354.561 397.365 356.688 399.313 353.683 414.87C351.682 425.232 342.357 430.938 327.428 430.938C323.17 430.938 318.566 430.476 313.749 429.57C312.017 429.241 310.46 429.077 309.121 429.077C301.843 429.077 300.474 433.583 298.069 443.78C297.082 447.953 295.967 452.687 294.045 457.902C286.578 478.168 286.906 487.361 295.346 494.347C305.467 502.722 313.25 541.427 312.19 551.327C311.514 557.631 298.94 566.986 282.954 566.986Z" fill="#100F0D"/>
<path d="M232.072 716.306C238.321 718.986 297.236 722.106 297.236 722.106C297.236 722.106 323.123 639.554 312.414 544.943C290.99 563.687 266.885 559.22 242.786 539.584C257.957 585.999 250.821 681.495 232.072 716.306Z" fill="#100F0D"/>
<path d="M322.722 350.033C324.027 354.21 327.014 356.995 329.392 356.253C331.773 355.508 332.644 351.52 331.341 347.342C330.039 343.168 327.049 340.384 324.676 341.131C322.295 341.873 321.417 345.857 322.722 350.033Z" fill="#100F0D"/>
<path d="M326.732 343.145C326.619 343.145 326.5 343.13 326.384 343.096C325.731 342.903 325.358 342.218 325.551 341.564L327.783 333.977C327.976 333.326 328.661 332.946 329.315 333.143C329.969 333.333 330.341 334.021 330.149 334.672L327.916 342.262C327.758 342.797 327.268 343.145 326.732 343.145Z" fill="#100F0D"/>
<path d="M267.338 594.926C260.448 544.114 237.728 510.499 217.632 479.35C214.549 474.575 211.697 475.254 210.385 475.516C200.776 477.423 190.052 481.932 192.8 487.82C193.385 489.065 194.278 490.346 195.393 491.769C191.224 492.609 186.234 493.655 180.306 494.96C157.985 499.868 144.175 508.694 130.338 522.526C116.501 536.358 45.7481 622.139 26.1113 644.007C51.999 693.99 96.4185 701.354 96.4185 701.354C96.4185 701.354 137.011 660.526 162.45 629.286C161.555 635.531 158.436 693.55 149.509 716.309C165.275 725.454 209.099 725.016 233.472 723.974C237.474 727.644 253.057 724.341 253.057 724.341C253.057 724.341 274.477 647.586 267.338 594.926Z" fill="#FF0025"/>
<path d="M192.137 303.511C180.422 307.862 167.367 318.571 160.336 364.425C156.937 386.601 148.707 410.407 150.257 433.019C151.707 454.187 170.041 459.956 188.731 463.696C205.195 466.988 269.187 482.244 273.222 454.695C277.929 422.556 227.264 406.415 234.531 376.585C236.009 370.523 242.1 362.988 248.371 361.585C256.373 359.794 258.751 366.633 264.975 370.827C272.556 375.938 277.095 372.951 281.649 365.282C285.954 358.031 284.341 346.417 283.66 338.277C282.767 327.611 281.499 323.759 290.755 320.705C303.267 316.581 313.981 308.106 301.937 293.805C318.004 312.881 326.036 309.87 339.091 301.503C352.147 293.134 352.819 285.435 347.794 271.046C342.772 256.653 327.376 234.563 300.262 237.91C273.148 241.257 275.825 248.619 243.355 255.314C210.883 262.008 190.129 271.714 192.137 303.511Z" fill="#100F0D"/>
<path d="M313.314 328.509C313.176 328.509 313.038 328.487 312.9 328.438C312.258 328.208 311.923 327.503 312.152 326.862C313.028 324.407 317.979 312.045 329.465 309.67C330.131 309.534 330.785 309.961 330.923 310.627C331.061 311.293 330.632 311.946 329.963 312.084C319.773 314.191 315.273 325.453 314.476 327.691C314.296 328.194 313.82 328.509 313.314 328.509Z" fill="#100F0D"/>
<path d="M232.523 722.893C232.499 722.893 232.472 722.893 232.447 722.89C231.766 722.848 231.25 722.264 231.292 721.581C231.359 720.511 231.586 717.59 231.916 713.336C233.848 688.526 238.984 622.619 237.099 607.566C235.128 591.81 239.398 587.864 245.867 581.885C246.673 581.14 247.522 580.353 248.405 579.506C245.223 577.474 236.865 572.167 230.54 568.305C223.934 564.268 222.481 558.79 218.595 544.142C217.436 539.773 216.121 534.816 214.377 528.767C209.075 510.359 201.524 501.19 196.526 495.124C195.3 493.638 194.242 492.35 193.359 491.119C192.964 490.563 193.09 489.79 193.645 489.398C194.202 488.999 194.972 489.128 195.367 489.681C196.2 490.846 197.234 492.102 198.43 493.554C203.557 499.781 211.305 509.188 216.747 528.085C218.499 534.158 219.873 539.343 220.978 543.509C224.678 557.46 226.065 562.68 231.827 566.199C239.781 571.061 250.929 578.187 251.042 578.261C251.356 578.46 251.563 578.796 251.602 579.167C251.642 579.538 251.514 579.909 251.25 580.171C249.942 581.476 248.701 582.627 247.539 583.697C241.217 589.543 237.733 592.761 239.549 607.258C241.461 622.563 236.315 688.652 234.376 713.528C234.048 717.761 233.821 720.668 233.754 721.739C233.712 722.39 233.172 722.893 232.523 722.893Z" fill="white"/>
<path d="M404.809 561.452L395.433 589.12C395.433 589.12 373.118 548.512 358.836 530.664C345.486 513.977 326.296 503.534 311.092 497.867C300.832 480.89 286.339 478.441 286.339 478.441C286.339 478.441 285.19 482.461 287.314 487.544C289.435 492.623 312.414 532.444 307.061 595.815C301.708 659.187 283.406 722.11 283.406 722.11H297.243C297.243 722.11 297.349 721.76 297.546 721.113C307.957 722.453 329.152 724.587 329.824 719.881C330.716 713.634 342.77 663.65 349.911 648.031C371.333 687.743 391.21 695.848 419.97 683.769C440.528 675.135 457.473 606.083 459.705 578.859C460.149 578.411 404.809 561.452 404.809 561.452Z" fill="#FF0025"/>
<path d="M297.248 723.348C297.129 723.348 297.008 723.33 296.887 723.299C296.236 723.1 295.868 722.407 296.068 721.756C296.344 720.85 323.772 631.011 327.736 613.845C331.809 596.189 331.678 594.069 329.024 588.878C325.683 582.361 322.817 576.634 322.817 576.634C322.533 576.064 322.731 575.371 323.273 575.032C326.285 573.171 333.819 567.241 332.539 562.211C329.69 551.034 318.835 514.001 310.899 499.924L310.643 499.473C310.305 498.881 310.512 498.126 311.102 497.79C311.694 497.447 312.446 497.657 312.787 498.248L313.05 498.714C321.105 513.004 332.06 550.341 334.929 561.605C336.614 568.214 328.39 574.535 325.516 576.508C326.47 578.415 328.71 582.861 331.217 587.759C334.32 593.814 334.199 596.802 330.139 614.398C326.157 631.651 298.705 721.567 298.427 722.48C298.266 723.005 297.778 723.348 297.248 723.348Z" fill="white"/>
<path d="M349.904 649.265C349.734 649.265 349.559 649.226 349.394 649.153C348.775 648.869 348.504 648.135 348.785 647.516C368.85 603.605 361.37 587.8 356.902 578.355C356.125 576.711 355.453 575.29 354.988 573.891C354.775 573.247 355.121 572.548 355.768 572.331C356.419 572.117 357.115 572.471 357.329 573.114C357.749 574.37 358.389 575.728 359.134 577.298C363.784 587.132 371.572 603.584 351.028 648.544C350.821 648.995 350.373 649.265 349.904 649.265Z" fill="#100F0D"/>
<path d="M402.689 607.086C402.227 607.086 401.787 606.831 401.573 606.387C401.524 606.282 396.598 595.969 392.176 585.355C391.913 584.725 392.211 584.005 392.837 583.739C393.467 583.491 394.191 583.774 394.45 584.407C398.851 594.965 403.753 605.218 403.802 605.32C404.096 605.935 403.833 606.674 403.218 606.967C403.046 607.048 402.868 607.086 402.689 607.086Z" fill="#100F0D"/>
<path d="M408.379 550.851C413.4 535.123 420.764 492.616 422.437 476.884C424.109 461.152 414.736 439.064 425.785 425.005C436.831 410.948 443.863 403.92 446.876 396.889C449.885 389.861 456.917 388.86 460.598 395.885C464.282 402.916 458.589 415.3 450.22 424.004C470.639 410.949 472.312 415.633 478.672 405.593C485.033 395.549 497.422 369.781 505.455 370.449C512.148 361.413 519.849 366.433 521.186 378.817C525.202 378.485 528.886 387.856 526.21 401.912C535.915 407.601 534.911 428.352 521.186 444.084C507.46 459.816 481.352 469.184 475.66 481.904C469.971 494.624 460.598 569.263 460.598 569.263L408.379 550.851Z" fill="white"/>
<path d="M409.904 550.089L459.565 567.594C460.961 556.627 469.218 493.287 474.533 481.404C477.734 474.253 486.943 468.208 496.69 461.81C505.203 456.223 513.999 450.444 520.255 443.276C528.382 433.96 532.637 421.804 531.09 412.306C530.369 407.894 528.466 404.669 525.583 402.979C525.132 402.714 524.897 402.196 524.995 401.685C526.951 391.414 525.447 383.945 523.089 381.094C522.69 380.615 522.074 380.048 521.392 380.048C520.762 380.048 520.027 379.579 519.957 378.953C519.187 371.852 516.21 367.077 512.55 367.077C510.549 367.077 508.436 368.497 506.441 371.187C506.19 371.53 505.78 371.726 505.35 371.684C499.573 371.684 490.557 387.486 484.592 397.945C482.793 401.094 481.1 404.067 479.714 406.257C475.876 412.313 473.557 413.334 468.473 415.577C464.708 417.231 459.548 419.505 450.881 425.043C450.356 425.379 449.66 425.267 449.265 424.788C448.869 424.305 448.897 423.602 449.331 423.15C456.91 415.265 463.053 403.235 459.502 396.462C458.106 393.796 456.164 392.327 454.037 392.327C451.616 392.327 449.359 394.216 448.005 397.379C445.847 402.416 441.837 407.279 435.767 414.639C433.125 417.84 430.13 421.471 426.75 425.771C419.84 434.569 421.313 446.855 422.734 458.738C423.514 465.273 424.256 471.441 423.661 477.017C422.08 491.877 414.988 533.29 409.904 550.089ZM460.594 570.498C460.457 570.498 460.317 570.473 460.184 570.428L407.966 552.02C407.336 551.796 406.996 551.117 407.199 550.48C412.259 534.63 419.599 491.884 421.208 476.754C421.772 471.455 421.051 465.423 420.285 459.032C418.805 446.648 417.269 433.845 424.812 424.249C428.209 419.925 431.215 416.28 433.863 413.068C439.801 405.872 443.719 401.118 445.738 396.41C447.494 392.306 450.598 389.861 454.037 389.861C457.081 389.861 459.873 391.848 461.689 395.318C464.981 401.601 461.622 411.113 455.874 419.131C461.143 416.108 464.813 414.492 467.483 413.317C472.364 411.165 474.193 410.361 477.629 404.938C478.987 402.794 480.666 399.845 482.447 396.724C490.904 381.895 498.436 369.585 504.846 369.214C507.834 365.425 510.664 364.61 512.55 364.61C517.414 364.61 521.178 369.707 522.287 377.687C523.089 377.883 524.044 378.383 524.985 379.52C527.455 382.504 529.565 389.973 527.57 401.321C530.691 403.476 532.742 407.118 533.525 411.91C535.184 422.101 530.705 435.048 522.116 444.899C515.636 452.322 506.693 458.193 498.044 463.87C488.605 470.066 479.69 475.918 476.786 482.411C471.233 494.819 461.913 568.675 461.818 569.42C461.773 569.787 461.563 570.116 461.245 570.316C461.045 570.435 460.821 570.498 460.594 570.498Z" fill="#100F0D"/>
<path d="M462.262 446.984C461.706 446.984 461.199 446.607 461.066 446.04C459.372 438.931 453.012 427.345 449.53 425.022C448.964 424.645 448.81 423.878 449.188 423.312C449.565 422.745 450.332 422.591 450.898 422.972C455.233 425.858 461.759 438.295 463.466 445.466C463.623 446.131 463.214 446.792 462.549 446.953C462.455 446.977 462.36 446.984 462.262 446.984Z" fill="#100F0D"/>
<path d="M503.124 440.31C502.669 440.31 502.236 440.061 502.019 439.631C500.773 437.137 485.952 419.369 480.302 417.487C479.658 417.274 479.308 416.574 479.522 415.927C479.739 415.283 480.431 414.933 481.082 415.147C487.562 417.309 502.872 435.821 504.226 438.526C504.531 439.138 504.282 439.876 503.673 440.18C503.495 440.268 503.31 440.31 503.124 440.31Z" fill="#100F0D"/>
<path d="M500.102 441.978C499.636 441.978 499.188 441.713 498.982 441.261C498.695 440.642 498.964 439.908 499.584 439.624C503.457 437.837 511.983 426.908 514.286 414.412C515.465 408.01 517.434 404.033 520.307 402.252C522.966 400.604 525.905 401.171 527.889 401.734C528.543 401.923 528.921 402.605 528.735 403.26C528.546 403.914 527.868 404.285 527.21 404.11C524.743 403.4 523.015 403.477 521.608 404.351C519.394 405.726 517.746 409.263 516.714 414.863C514.341 427.723 505.455 439.631 500.616 441.863C500.448 441.94 500.273 441.978 500.102 441.978Z" fill="#100F0D"/>
<path d="M495.75 430.924C495.404 430.924 495.064 430.781 494.819 430.497C494.368 429.986 494.424 429.206 494.938 428.759C502.237 422.416 505.228 413.167 507.929 399.335C510.413 386.601 515.255 379.513 522.316 378.275C522.981 378.149 523.625 378.6 523.743 379.272C523.862 379.944 523.411 380.584 522.743 380.699C516.788 381.749 512.621 388.179 510.35 399.803C507.544 414.164 504.392 423.812 496.558 430.623C496.324 430.823 496.037 430.924 495.75 430.924Z" fill="#100F0D"/>
<path d="M488.045 422.231C487.8 422.231 487.552 422.161 487.335 422.007C486.779 421.615 486.646 420.845 487.038 420.289C490.669 415.129 495.232 400.377 498.891 388.521C501.631 379.657 503.996 371.999 505.71 368.861C506.036 368.263 506.785 368.043 507.383 368.371C507.981 368.697 508.201 369.445 507.876 370.044C506.281 372.965 503.839 380.874 501.249 389.249C497.341 401.895 492.912 416.228 489.056 421.709C488.815 422.049 488.434 422.231 488.045 422.231Z" fill="#100F0D"/>
<path d="M159.777 633.201C159.496 633.201 159.212 633.104 158.98 632.908C158.459 632.467 158.398 631.69 158.839 631.169C166.361 622.322 181.493 606.293 181.646 606.132C182.112 605.639 182.892 605.614 183.388 606.083C183.883 606.548 183.906 607.332 183.437 607.829C183.287 607.989 168.199 623.97 160.719 632.768C160.475 633.055 160.127 633.201 159.777 633.201Z" fill="#100F0D"/>
<path d="M406.205 546.878C401.272 556.127 398.417 571.128 399.421 572.468C400.425 573.808 437.039 576.785 462.017 594.668C467.709 597.344 469.525 570.978 468.64 567.927C466.296 559.892 409.217 543.53 406.205 546.878Z" fill="#100F0D"/>
<path d="M266.889 593.933C266.6 593.933 266.312 593.835 266.077 593.632C265.964 593.534 254.717 583.771 249.487 580.286C248.92 579.908 248.767 579.142 249.145 578.576C249.522 578.009 250.284 577.858 250.854 578.233C256.217 581.805 267.232 591.365 267.698 591.771C268.211 592.219 268.266 592.996 267.819 593.51C267.575 593.79 267.232 593.933 266.889 593.933Z" fill="white"/>
<path d="M307.546 588.92C307.231 588.92 306.915 588.797 306.673 588.56C306.192 588.077 306.192 587.297 306.673 586.814C311.388 582.102 317.412 578.488 321.396 576.095C322.387 575.504 323.234 574.997 323.88 574.577C324.452 574.203 325.217 574.367 325.587 574.937C325.957 575.508 325.794 576.27 325.224 576.644C324.558 577.075 323.685 577.596 322.666 578.208C318.783 580.542 312.917 584.061 308.42 588.56C308.178 588.797 307.862 588.92 307.546 588.92Z" fill="white"/>
<path d="M271.693 413.615C270.39 401.448 260.796 388.973 249.407 396.249C239.502 402.574 236.488 419.6 245.553 427.671C249.412 431.106 255.658 432.712 260.878 431.69C269.645 429.973 272.576 421.864 271.693 413.615Z" fill="#F8A218"/>
</g>
<path d="M296.812 154.739C287.816 154.739 278.792 155.134 269.985 155.913C132.578 168.078 46.6258 245.351 14.5202 385.583C0.408754 447.219 -11.6801 592.369 41.0285 647.621C97.4466 706.759 140.396 713.343 232.078 715.071C263.736 715.669 290.32 716.67 313.772 717.555C341.039 718.583 364.588 719.475 388.61 719.475H388.617C407.657 719.475 425.105 718.926 443.537 717.744L449.233 717.387C517.756 713.119 621.305 706.668 632.522 554.661C641.241 436.486 609.686 335.097 541.275 261.46C479.186 194.633 387.798 154.739 296.812 154.739ZM388.617 721.942H388.61C364.539 721.942 340.97 721.053 313.679 720.021C290.238 719.136 263.667 718.132 232.034 717.537C139.618 715.795 96.307 709.141 39.2448 649.321C-14.1566 593.345 -2.09269 447.093 12.116 385.034C44.487 243.639 131.174 165.725 269.768 153.457C278.644 152.672 287.744 152.272 296.812 152.272C388.474 152.272 480.536 192.463 543.08 259.781C591.121 311.49 646.062 404.656 634.982 554.843C623.607 708.998 518.764 715.526 449.387 719.846L443.694 720.207C425.214 721.389 407.706 721.942 388.617 721.942Z" fill="#100F0D"/>
<path d="M422.897 214.035C439.614 209.674 493.044 199.497 521.034 193.683C549.02 187.864 579.554 183.868 583.553 185.686C587.548 187.504 543.202 243.47 522.486 265.64C515.583 270.363 506.129 261.642 506.129 261.642C486.504 281.993 464.329 289.625 460.698 290.353C457.062 291.078 455.243 268.548 454.879 255.098C454.515 241.653 456.901 239.033 445.793 233.659C411.264 216.938 422.897 214.035 422.897 214.035Z" fill="#F4B400"/>
<path d="M460.703 291.586C460.164 291.586 459.664 291.226 459.513 290.678C459.338 290.02 459.723 289.341 460.381 289.164C462.204 288.5 468.837 277.759 473.68 269.915C478.886 261.484 483.802 253.522 486.734 250.594C492.248 245.076 543.091 210.374 564.675 195.77L458.981 237.711C458.352 237.961 457.631 237.652 457.379 237.021C457.131 236.387 457.438 235.671 458.068 235.42L574.381 189.265C574.99 189.019 575.693 189.305 575.962 189.907C576.232 190.511 575.976 191.219 575.388 191.515C571.795 193.419 494.245 246.569 488.476 252.338C485.75 255.064 480.681 263.272 475.779 271.21C467.361 284.847 463.418 290.89 461.032 291.542C460.92 291.571 460.811 291.586 460.703 291.586Z" fill="#100F0D"/>
<path d="M508.31 264.325C508.058 264.325 507.806 264.248 507.586 264.088L507.051 263.698C499.598 258.252 490.323 251.454 488.147 252.564C487.538 252.865 486.8 252.621 486.492 252.012C486.188 251.402 486.433 250.662 487.045 250.356C490.4 248.682 497.051 253.331 508.51 261.708L509.038 262.095C509.591 262.499 509.71 263.271 509.307 263.819C509.066 264.149 508.692 264.325 508.31 264.325Z" fill="#100F0D"/>
<mask id="mask1_101_51" style="mask-type:luminance" maskUnits="userSpaceOnUse" x="722" y="1" width="631" height="551">
<path d="M937.394 17.6445C851.216 35.8083 716.314 73.3126 722.521 237.697C728.728 402.084 791.94 486.812 897.483 519.689C1003.03 552.565 1262 586.331 1316.98 477.038C1371.97 367.745 1353.84 211.707 1325.46 146.841C1297.09 81.9726 1228.3 -43.6646 937.394 17.6445Z" fill="white"/>
</mask>
<g mask="url(#mask1_101_51)">
<path d="M1170.53 151.729C1163.75 122.952 1101.25 85.9554 1074.53 96.2337C1047.81 106.509 1081.93 118.43 1081.93 118.43C1040.82 111.031 1021.08 115.961 1016.97 126.242C1012.86 136.518 1030.12 140.629 1030.12 140.629C1002.17 141.451 970.922 163.241 975.443 178.449C979.967 193.661 998.468 188.111 998.468 188.111C972.154 209.282 976.447 230.812 1003.9 228.269C975.033 249.98 970.926 289.857 982.024 304.245C993.122 318.634 1003.9 296.855 1003.9 296.855C992.3 328.91 1009.57 349.876 1026.01 323.156C1022.32 359.741 1054.79 364.677 1065.07 346.588C1074.94 381.532 1098.38 376.186 1102.49 358.922C1115.24 374.955 1140.31 369.609 1145.25 352.342C1159.23 368.787 1171.56 353.78 1170.33 341.038C1184.72 357.894 1207.33 359.947 1211.86 329.322C1232.41 344.534 1242.69 344.121 1237.14 307.74C1271.47 320.277 1289.56 282.045 1250.09 249.158C1276.41 256.146 1273.53 229.014 1235.91 212.777C1262.43 212.16 1265.72 194.07 1252.56 180.711C1239.4 167.35 1217.2 141.451 1170.53 151.729Z" fill="#100F0D"/>
<path d="M1039.86 221.945C1035.84 246.041 1042.99 253.187 1050.12 270.145C1057.27 287.102 1047.28 304.973 1066.31 326.148C1084.05 345.895 1110.83 344.67 1110.83 344.67L1118.41 375.462L1184.03 358.502L1169.75 296.695C1169.75 296.695 1183.13 289.334 1179.12 263.001C1175.1 236.671 1174.65 171.518 1110.83 181.336C1047 191.15 1045.67 202.753 1039.86 221.945Z" fill="white"/>
<path d="M1110.82 343.433C1111.39 343.433 1111.89 343.818 1112.02 344.371L1119.31 373.951L1182.55 357.607L1168.54 296.971C1168.42 296.433 1168.67 295.878 1169.15 295.612C1169.27 295.545 1181.72 288.234 1177.89 263.184C1177.48 260.483 1177.1 257.37 1176.7 253.973C1173.43 226.893 1167.97 181.567 1123.17 181.567C1119.35 181.567 1115.26 181.898 1111.01 182.551C1050.11 191.917 1046.92 202.629 1041.61 220.376L1041.04 222.298C1037.91 241.155 1041.78 249.314 1047.14 260.604C1048.47 263.418 1049.86 266.326 1051.26 269.663C1054.01 276.19 1054.29 282.687 1054.59 289.566C1055.08 300.776 1055.59 312.372 1067.22 325.321C1082.72 342.573 1105.49 343.446 1109.89 343.446C1111.08 343.446 1110.79 343.433 1110.82 343.433ZM1118.41 376.694C1118.19 376.694 1117.97 376.634 1117.78 376.519C1117.5 376.351 1117.29 376.075 1117.21 375.756L1109.86 345.912C1105.2 345.91 1081.55 344.96 1065.39 326.969C1053.16 313.361 1052.61 300.776 1052.13 289.672C1051.84 283.022 1051.56 276.74 1048.99 270.62C1047.6 267.335 1046.23 264.451 1044.91 261.662C1039.57 250.404 1035.35 241.515 1038.64 221.74L1039.25 219.671C1044.83 200.991 1048.19 189.717 1110.64 180.114C1115.01 179.441 1119.22 179.101 1123.17 179.101C1170.16 179.101 1175.79 225.785 1179.14 253.677C1179.55 257.047 1179.92 260.132 1180.33 262.813C1183.91 286.226 1174.1 295.138 1171.14 297.254L1185.23 358.219C1185.38 358.87 1184.98 359.524 1184.33 359.692L1118.72 376.652C1118.62 376.68 1118.51 376.694 1118.41 376.694Z" fill="#100F0D"/>
<path d="M1194.27 240.505C1192.04 227.057 1189.31 214.337 1182.36 202.355C1178.07 194.967 1174.2 187.363 1166.95 182.44C1146.59 168.605 1119.18 169.434 1096.01 174.238C1077.6 178.056 1057.12 184.576 1042.86 197.259C1038.12 201.472 1018.93 220.6 1031.36 226.125C1038.64 229.364 1046.66 222.494 1052.15 217.86C1052.39 218.558 1052.79 219.307 1053.36 220.166C1057.06 225.715 1066.31 226.332 1072.48 225.099C1088.51 222.632 1103.93 212.15 1115.65 200.433C1113.18 204.133 1110.1 209.066 1111.33 213.999C1113.8 219.549 1119.35 220.166 1124.28 220.166C1134.77 219.549 1144.63 210.916 1152.04 204.133C1145.87 215.849 1139.08 227.566 1138.47 241.132C1137.85 247.298 1138.47 254.081 1140.93 259.631C1144.02 267.031 1150.8 267.031 1156.97 262.714C1153.88 272.58 1152.04 281.83 1156.35 291.696C1158.92 297.577 1167.04 307.524 1178.35 305.467C1187.38 303.827 1189.05 282.647 1192.33 275.252C1198.44 261.454 1196.76 255.527 1194.27 240.505Z" fill="#100F0D"/>
<path d="M1027.5 230.557C1021.98 230.557 1016.63 228.594 1015.15 222.995C1014.28 219.741 1014.79 215.8 1015.57 213.193C1017.06 208.116 1021.68 200.931 1025.85 197.177C1026.35 196.721 1027.13 196.76 1027.59 197.268C1028.04 197.774 1028.01 198.556 1027.5 199.01C1023.68 202.448 1019.3 209.263 1017.93 213.893C1017.25 216.177 1016.8 219.601 1017.53 222.361C1019.38 229.319 1029.21 228.108 1031.17 227.789C1037.02 226.847 1041.35 225.508 1044.81 223.572C1045.41 223.244 1046.16 223.453 1046.49 224.048C1046.83 224.642 1046.62 225.395 1046.02 225.725C1042.3 227.807 1037.7 229.235 1031.56 230.224C1030.23 230.439 1028.86 230.557 1027.5 230.557Z" fill="white"/>
<path d="M1092.6 302.989C1092.58 302.989 1092.55 302.989 1092.53 302.987C1084.41 302.538 1079.35 300.663 1077.03 297.252C1074.14 293.015 1075.98 287.485 1077.77 282.137C1078.11 281.094 1078.46 280.053 1078.77 279.034C1081.5 269.918 1075.24 258.914 1068.26 252.548C1062.76 247.524 1055.74 246.579 1051.23 247.869C1048.67 248.602 1046.92 250.044 1046.41 251.833C1046.22 252.487 1045.55 252.869 1044.89 252.686C1044.23 252.499 1043.85 251.818 1044.04 251.162C1044.78 248.532 1047.15 246.468 1050.55 245.496C1055.73 244.016 1063.72 245.062 1069.93 250.728C1077.7 257.827 1084.18 269.55 1081.13 279.742C1080.82 280.785 1080.46 281.849 1080.1 282.917C1078.52 287.694 1076.87 292.637 1079.07 295.864C1080.9 298.559 1085.48 300.126 1092.67 300.526C1093.35 300.562 1093.87 301.144 1093.83 301.825C1093.8 302.481 1093.25 302.989 1092.6 302.989Z" fill="#100F0D"/>
<path d="M1088.81 248.479C1088.54 248.479 1088.27 248.39 1088.05 248.213C1087.51 247.789 1087.42 247.012 1087.85 246.479C1092.15 241.04 1104.63 229.787 1127.35 242.724C1127.95 243.06 1128.15 243.812 1127.82 244.407C1127.48 244.996 1126.72 245.204 1126.13 244.868C1105.83 233.312 1094.64 241.876 1089.78 248.01C1089.54 248.319 1089.18 248.479 1088.81 248.479Z" fill="#100F0D"/>
<path d="M1117.8 267.542C1119.86 271.398 1119.76 275.48 1117.57 276.656C1115.37 277.838 1111.91 275.667 1109.84 271.809C1107.77 267.962 1107.88 263.88 1110.07 262.706C1112.27 261.526 1115.73 263.69 1117.8 267.542Z" fill="#100F0D"/>
<path d="M1111.58 264.543C1111.38 264.543 1111.18 264.496 1111 264.4L1104.01 260.68C1103.41 260.36 1103.18 259.612 1103.5 259.013C1103.83 258.409 1104.58 258.189 1105.17 258.502L1112.16 262.222C1112.76 262.543 1112.99 263.288 1112.67 263.889C1112.44 264.306 1112.02 264.543 1111.58 264.543Z" fill="#100F0D"/>
<path d="M1071.28 271.561C1073.34 275.413 1073.25 279.496 1071.05 280.675C1068.86 281.854 1065.39 279.683 1063.32 275.825C1061.25 271.978 1061.36 267.895 1063.56 266.721C1065.76 265.542 1069.21 267.703 1071.28 271.561Z" fill="#100F0D"/>
<path d="M1065.05 268.553C1064.86 268.553 1064.66 268.506 1064.47 268.41L1057.49 264.69C1056.89 264.37 1056.66 263.622 1056.98 263.021C1057.3 262.419 1058.05 262.197 1058.65 262.512L1065.63 266.232C1066.24 266.553 1066.46 267.298 1066.14 267.899C1065.92 268.316 1065.49 268.553 1065.05 268.553Z" fill="#100F0D"/>
<path d="M1087.79 309.502C1091.74 317.171 1096.45 321.519 1100.89 321.519C1107.25 321.519 1112.29 312.822 1114.01 299.133C1098.55 308.972 1093.37 309.897 1087.79 309.502ZM1100.89 323.986C1095 323.986 1089.22 318.522 1084.61 308.6C1084.42 308.197 1084.46 307.726 1084.72 307.364C1084.97 307.004 1085.4 306.809 1085.85 306.851C1087.11 306.976 1088.42 307.107 1089.7 307.107C1094.46 307.107 1100.1 305.235 1114.84 295.665C1115.24 295.406 1115.75 295.401 1116.16 295.643C1116.56 295.887 1116.79 296.341 1116.74 296.812C1115.2 313.574 1109.13 323.986 1100.89 323.986Z" fill="#100F0D"/>
<path d="M1097.44 323.03C1097.34 323.03 1097.23 323.017 1097.12 322.988C1096.46 322.808 1096.08 322.129 1096.25 321.471C1098.43 313.501 1107.28 307.547 1113.11 307.89C1113.79 307.934 1114.3 308.519 1114.26 309.2C1114.22 309.878 1113.69 310.396 1112.95 310.354C1108 310.036 1100.47 315.418 1098.64 322.122C1098.48 322.67 1097.99 323.03 1097.44 323.03Z" fill="#100F0D"/>
<path d="M949.146 532.65C960.864 521.273 1016.77 447.306 1038.52 420.862C1060.28 394.423 1085.39 393.754 1119.53 393.419C1111.12 359.734 1113.36 358.989 1115.03 359.321C1116.71 359.657 1148.6 366.615 1180.41 344.523C1188.83 342.263 1188.49 376.015 1196.53 380.363C1204.56 384.718 1258.11 373.671 1284.56 400.114C1311 426.554 1329.42 489.142 1329.42 489.142C1315.02 512.237 1217.28 584.861 1094.43 551.397C1092.08 541.021 1075.34 524.953 1070.33 504.538C1049.57 531.649 1034.84 551.729 1034.84 551.729C1034.84 551.729 968.897 547.377 949.146 532.65Z" fill="#FF0025"/>
<path d="M1145.15 403.556C1131.71 403.556 1122.33 398.12 1118.65 394.265C1118.18 393.772 1118.19 392.995 1118.69 392.523C1119.18 392.051 1119.96 392.072 1120.43 392.561C1127.35 399.792 1155.72 412.781 1194.04 378.771C1194.55 378.316 1195.33 378.362 1195.78 378.876C1196.23 379.383 1196.18 380.163 1195.67 380.615C1175.87 398.2 1158.5 403.556 1145.15 403.556Z" fill="#100F0D"/>
<path d="M1138.05 403.249C1137.52 403.249 1137.03 402.906 1136.87 402.375C1136.43 400.909 1125.91 366.349 1124.8 361.455C1124.65 360.791 1125.06 360.129 1125.73 359.979C1126.4 359.829 1127.05 360.245 1127.21 360.91C1128.3 365.716 1139.12 401.301 1139.23 401.657C1139.43 402.308 1139.06 403.001 1138.41 403.197C1138.29 403.235 1138.17 403.249 1138.05 403.249Z" fill="#100F0D"/>
<path d="M1152.56 403.025C1152.03 403.025 1151.54 402.685 1151.38 402.161L1138.44 360.881C1138.23 360.234 1138.6 359.538 1139.24 359.335C1139.89 359.139 1140.59 359.496 1140.79 360.143L1153.73 401.423C1153.93 402.073 1153.57 402.762 1152.92 402.969C1152.8 403.004 1152.68 403.025 1152.56 403.025Z" fill="#100F0D"/>
<path d="M1167.73 398.558C1167.21 398.558 1166.73 398.225 1166.55 397.707L1153.61 358.212C1153.4 357.568 1153.75 356.869 1154.4 356.655C1155.04 356.445 1155.74 356.799 1155.96 357.446L1168.9 396.938C1169.11 397.589 1168.76 398.281 1168.11 398.495C1167.99 398.537 1167.86 398.558 1167.73 398.558Z" fill="#100F0D"/>
<path d="M1181.58 391.432C1181.05 391.432 1180.56 391.082 1180.4 390.543L1169.46 353.507C1169.27 352.853 1169.65 352.167 1170.3 351.975C1170.95 351.779 1171.64 352.153 1171.83 352.807L1182.77 389.847C1182.96 390.501 1182.58 391.187 1181.93 391.379C1181.81 391.414 1181.7 391.432 1181.58 391.432Z" fill="#100F0D"/>
<path d="M1111.19 346.13C1111.06 346.13 1110.93 346.128 1110.8 346.125C1110.12 346.11 1109.58 345.543 1109.6 344.862C1109.62 344.181 1110.11 343.656 1110.86 343.658C1119.61 343.964 1143.09 336.291 1158.08 317.784C1158.51 317.254 1159.29 317.175 1159.81 317.602C1160.34 318.03 1160.43 318.807 1160 319.335C1144.69 338.234 1120.59 346.13 1111.19 346.13Z" fill="#100F0D"/>
<path d="M1075 518.139C1074.53 518.139 1074.08 517.863 1073.87 517.401C1065.71 498.829 1065.07 480.302 1065.07 475.068C1065.07 474.386 1065.62 473.837 1066.31 473.837C1066.98 473.837 1067.54 474.386 1067.54 475.068C1067.54 478.71 1067.95 497.811 1076.13 516.407C1076.41 517.034 1076.13 517.761 1075.5 518.038C1075.34 518.104 1075.17 518.139 1075 518.139Z" fill="#100F0D"/>
<path d="M1254.76 541.574C1254.22 541.574 1253.73 541.224 1253.57 540.689C1253.46 540.311 1242.47 502.722 1237.85 488.512C1237.64 487.865 1237.99 487.169 1238.64 486.959C1239.3 486.752 1239.98 487.102 1240.19 487.749C1244.83 501.991 1255.83 539.618 1255.94 539.996C1256.13 540.65 1255.76 541.332 1255.1 541.525C1254.99 541.56 1254.87 541.574 1254.76 541.574Z" fill="#100F0D"/>
<path d="M1173.88 307.642C1170.06 307.642 1165.64 306.375 1160.91 303.896C1160.31 303.58 1160.07 302.835 1160.39 302.231C1160.71 301.624 1161.46 301.397 1162.05 301.71C1167.69 304.66 1172.74 305.763 1176.63 304.89C1185.81 302.803 1189.62 286.728 1189.62 278.586C1189.62 278.058 1189.95 277.587 1190.45 277.417C1190.95 277.249 1191.5 277.417 1191.83 277.834C1196.03 283.29 1200.96 285.833 1207.36 285.833C1213.61 285.414 1219.65 278.5 1220.43 273.058C1220.53 272.385 1221.16 271.907 1221.82 272.013C1222.5 272.109 1222.97 272.733 1222.87 273.409C1221.95 279.881 1215.01 287.794 1207.45 288.297H1207.44C1201.27 288.297 1196.19 286.151 1191.95 281.751C1191.1 291.847 1186.34 305.213 1177.17 307.295C1176.13 307.527 1175.04 307.642 1173.88 307.642Z" fill="white"/>
</g>
<path d="M1078.61 2.46559C1036.65 2.46559 989.22 7.97596 937.666 18.8412C828.676 41.815 718.035 85.7739 723.77 237.641C729.595 391.953 786.541 483.821 897.864 518.5C948.967 534.417 1036.88 550.484 1118.11 550.484C1118.12 550.484 1118.13 550.484 1118.14 550.484C1191.37 550.484 1285.12 537.646 1315.9 476.475C1346.88 414.891 1352.23 343.957 1351.27 295.294C1350.16 239.444 1339.84 182.745 1324.35 147.325C1307.01 107.707 1260.97 2.46559 1078.61 2.46559ZM1118.14 552.951C1118.12 552.951 1118.12 552.951 1118.11 552.951C1031.04 552.951 944.657 535.659 897.133 520.854C784.687 485.829 727.174 393.22 721.303 237.735C718.578 165.471 743.233 109.655 794.599 71.8354C837.115 40.5273 890.52 26.2581 937.155 16.4288C988.877 5.52906 1036.47 -0.000976562 1078.61 -0.000976562C1154.6 -0.000976562 1215.44 17.9334 1259.43 53.2991C1295.63 82.3973 1314.35 118.306 1326.61 146.336C1342.23 182.034 1352.62 239.094 1353.73 295.245C1354.7 344.187 1349.31 415.546 1318.1 477.58C1286.76 539.871 1192.06 552.951 1118.14 552.951Z" fill="#100F0D"/>
<path d="M831.632 127.749H734.926C718.118 127.749 705.274 142.206 706.3 159.681L708.906 204.104C709.854 220.295 723.419 232.993 739.149 232.753L809.117 231.7C812.77 242.556 815.447 253.118 822.444 252.602C827.451 252.111 829.596 241.52 831.02 231.303C845.697 230.393 857.782 217.888 858.331 202.469L859.905 158.983C860.525 141.882 847.901 127.749 831.632 127.749Z" fill="white"/>
<path d="M809.105 230.455C809.637 230.455 810.105 230.79 810.277 231.296C810.641 232.379 810.998 233.462 811.348 234.53C814.391 243.799 817.068 251.769 822.337 251.362C827.029 250.9 829.03 236.53 829.789 231.119C829.87 230.539 830.349 230.095 830.934 230.06C845.076 229.182 856.565 217.039 857.087 202.413L858.661 158.927C858.959 150.708 855.999 142.744 850.534 137.081C845.488 131.851 838.774 128.971 831.619 128.971H734.917C727.433 128.971 720.478 131.972 715.335 137.423C709.884 143.207 707.032 151.291 707.519 159.598L710.125 204.021C711.014 219.178 723.83 231.511 738.699 231.511L739.119 231.508L809.087 230.455C809.094 230.455 809.098 230.455 809.105 230.455ZM821.945 253.843C815.091 253.843 812.268 245.247 809.003 235.299C808.744 234.515 808.486 233.726 808.223 232.934L738.699 233.977C722.273 233.977 708.645 220.882 707.665 204.166L705.055 159.743C704.531 150.76 707.623 142.006 713.54 135.731C719.152 129.779 726.744 126.504 734.917 126.504H831.619C839.446 126.504 846.797 129.651 852.311 135.369C858.234 141.51 861.45 150.131 861.128 159.016L859.553 202.501C859.001 218.033 847.024 230.988 832.092 232.441C830.524 243.335 828.229 253.261 822.551 253.818C822.33 253.836 822.134 253.843 821.945 253.843Z" fill="#100F0D"/>
<path d="M753.543 181.612C753.543 186.972 749.299 191.318 744.062 191.318C738.828 191.318 734.58 186.972 734.58 181.612C734.58 176.25 738.828 171.906 744.062 171.906C749.299 171.906 753.543 176.25 753.543 181.612Z" fill="#092B5E"/>
<path d="M791.026 181.612C791.026 186.972 786.782 191.318 781.544 191.318C776.307 191.318 772.062 186.972 772.062 181.612C772.062 176.25 776.307 171.906 781.544 171.906C786.782 171.906 791.026 176.25 791.026 181.612Z" fill="#092B5E"/>
<path d="M828.508 181.612C828.508 186.972 824.264 191.318 819.03 191.318C813.789 191.318 809.545 186.972 809.545 181.612C809.545 176.25 813.789 171.906 819.03 171.906C824.264 171.906 828.508 176.25 828.508 181.612Z" fill="#092B5E"/>
<path d="M1142.65 963.098H1046.64C1045.96 963.098 1045.4 962.545 1045.4 961.863C1045.4 961.181 1045.96 960.632 1046.64 960.632H1142.65C1143.34 960.632 1143.89 961.181 1143.89 961.863C1143.89 962.545 1143.34 963.098 1142.65 963.098Z" fill="#100F0D"/>
<path d="M858.875 613.646C830.423 599.926 825.066 569.134 866.576 557.418C837.452 521.606 866.908 500.855 886.662 496.839C906.412 492.823 945.577 502.863 983.402 535.327C1021.23 567.794 1037.63 569.466 1049.01 594.906C1060.39 620.342 1055.04 640.089 1043.65 665.861C1032.27 691.633 1030.93 699.665 1053.03 720.417C1075.12 741.172 1093.2 761.923 1077.8 801.08C1062.4 840.239 878.289 825.847 869.588 799.072C860.883 772.296 881.638 674.229 881.638 674.229L858.875 613.646Z" fill="#100F0D"/>
<path d="M837.791 773.971C833.438 754.895 838.49 711.09 876.62 689.292C904.431 673.392 919.133 695.652 919.133 695.652L923.485 768.951C923.485 768.951 847.16 774.307 837.791 773.971Z" fill="#100F0D"/>
<path d="M623.547 663.87C620.202 659.186 615.192 652.774 610.504 656.122C605.819 659.47 613.278 686.644 634.264 683.282C628.904 675.25 623.547 663.87 623.547 663.87Z" fill="white"/>
<path d="M613.251 656.409C612.544 656.409 611.883 656.64 611.221 657.108C610.305 657.762 609.878 661.289 611.449 666.2C613.943 673.994 620.325 682.32 630.748 682.32C631.206 682.32 631.675 682.303 632.147 682.275C627.183 674.432 622.484 664.486 622.435 664.381C620.801 662.128 616.718 656.409 613.251 656.409ZM630.748 684.787C618.985 684.787 611.732 675.18 609.098 666.952C607.733 662.688 607.096 657.024 609.79 655.1C610.864 654.331 612.033 653.942 613.251 653.942C617.414 653.942 621.144 658.361 624.555 663.136C624.723 663.444 630.048 674.722 635.289 682.583C635.524 682.933 635.566 683.377 635.394 683.762C635.226 684.146 634.873 684.419 634.46 684.486C633.204 684.685 631.958 684.787 630.748 684.787Z" fill="#100F0D"/>
<path d="M682.802 666.861C671.424 663.177 664.056 654.145 667.743 646.777C671.424 639.417 683.474 649.121 691.843 655.817C700.212 662.509 708.248 663.849 708.248 663.849C708.248 663.849 695.859 670.209 682.802 666.861Z" fill="white"/>
<path d="M671.956 645.378C670.498 645.378 669.507 646.001 668.843 647.334C667.751 649.51 667.734 651.885 668.783 654.39C670.77 659.13 676.288 663.461 683.181 665.693C685.528 666.288 688.103 666.606 690.766 666.606C696.367 666.606 701.343 665.217 704.421 664.105C701.196 663.038 696.21 660.893 691.07 656.783C684.961 651.896 676.813 645.378 671.956 645.378ZM690.766 669.072C687.893 669.072 685.115 668.733 682.495 668.061C674.864 665.595 668.769 660.729 666.509 655.345C665.186 652.19 665.232 649.041 666.635 646.228C667.72 644.06 669.56 642.912 671.956 642.912C677.68 642.912 685.871 649.464 692.452 654.729C700.604 661.247 708.371 662.625 708.448 662.635C708.97 662.726 709.379 663.139 709.463 663.664C709.544 664.189 709.278 664.706 708.805 664.948C708.48 665.119 700.66 669.072 690.766 669.072Z" fill="#100F0D"/>
<path d="M694.744 769.63C693.852 749.991 691.62 710.719 688.499 698.223C685.371 685.727 665.729 689.292 664.393 688.851C663.053 688.403 638.617 697.663 626.567 673.231C614.514 648.796 624.223 639.757 630.916 642.1C633.261 634.072 639.957 636.412 643.638 640.428C646.986 633.4 656.692 640.768 659.036 649.804C661.38 658.84 663.724 666.872 682.467 664.528C701.213 662.184 724.309 656.828 733.349 683.94C742.387 711.051 749.755 753.223 749.755 753.223C749.755 753.223 746.183 780.006 694.744 769.63Z" fill="white"/>
<path d="M695.919 768.605C703.333 770.05 710.145 770.781 716.184 770.781C744.251 770.781 748.138 755.032 748.488 753.223C747.91 749.977 740.745 710.065 732.166 684.332C726.071 666.057 713.525 663.713 703.273 663.713C697.854 663.713 692.242 664.468 686.815 665.196C685.395 665.388 683.988 665.577 682.606 665.749C680.371 666.032 678.289 666.172 676.414 666.172C661.995 666.172 659.78 657.636 657.828 650.112C656.184 643.776 650.981 638.861 647.601 638.861C646.349 638.861 645.411 639.547 644.736 640.957C644.561 641.327 644.211 641.586 643.805 641.646C643.396 641.709 642.993 641.565 642.714 641.261C640.856 639.235 638.501 637.976 636.563 637.976C634.46 637.976 632.955 639.48 632.088 642.447C631.993 642.772 631.769 643.042 631.468 643.199C631.168 643.353 630.814 643.374 630.496 643.265C628.078 642.422 625.367 643.531 623.792 646.064C622.239 648.562 619.506 656.153 627.658 672.686C632.99 683.496 641.506 688.974 652.968 688.974C656.953 688.974 660.309 688.302 662.314 687.903C663.262 687.714 663.835 687.599 664.241 687.599C664.374 687.599 664.644 687.634 664.766 687.676C665.228 687.655 665.732 687.63 666.365 687.595C667.453 687.54 668.895 687.466 670.522 687.466C681.497 687.466 687.945 690.985 689.681 697.922C693.036 711.345 695.254 754.21 695.919 768.605ZM716.184 773.247C709.729 773.247 702.427 772.436 694.488 770.837C693.932 770.721 693.526 770.249 693.498 769.682C692.896 756.403 690.664 712.038 687.288 698.524C685.86 692.822 680.22 689.932 670.522 689.932C668.944 689.932 667.548 690.002 666.491 690.058C665.27 690.121 664.591 690.149 664.178 690.069C663.912 690.09 663.44 690.195 662.796 690.321C660.701 690.74 657.198 691.44 652.968 691.44C640.663 691.44 631.147 685.332 625.447 673.774C617.061 656.772 619.496 648.299 621.696 644.763C623.635 641.646 626.899 640.065 630.101 640.624C631.801 636.206 634.827 635.51 636.563 635.51C638.795 635.51 641.265 636.594 643.389 638.473C644.463 637.122 645.915 636.395 647.601 636.395C652.514 636.395 658.409 642.513 660.218 649.489C662.195 657.115 663.905 663.706 676.414 663.706C678.184 663.706 680.168 663.573 682.298 663.303C683.673 663.132 685.073 662.947 686.486 662.754C691.993 662.013 697.686 661.247 703.273 661.247C713.486 661.247 727.842 663.559 734.507 683.548C743.471 710.436 750.881 752.586 750.954 753.01C750.975 753.132 750.979 753.262 750.961 753.387C750.933 753.583 747.942 773.247 716.184 773.247Z" fill="#100F0D"/>
<path d="M636.098 686.322C635.836 686.322 635.57 686.238 635.346 686.067C627.764 680.211 622.737 671.462 620.399 660.057C620.26 659.389 620.69 658.738 621.358 658.598C622.033 658.466 622.677 658.892 622.814 659.56C625.032 670.367 629.755 678.63 636.854 684.115C637.393 684.535 637.491 685.304 637.074 685.846C636.833 686.161 636.469 686.322 636.098 686.322Z" fill="#100F0D"/>
<path d="M667.747 681.827C667.729 681.827 667.708 681.827 667.691 681.827C660.798 681.526 655.085 678.58 650.718 673.06C642.367 662.509 641.418 645.508 642.43 640.197C642.556 639.533 643.196 639.085 643.875 639.218C644.543 639.344 644.98 639.991 644.854 640.659C643.934 645.48 644.903 661.743 652.653 671.531C656.558 676.46 661.652 679.098 667.799 679.36C668.478 679.392 669.006 679.969 668.978 680.648C668.947 681.309 668.401 681.827 667.747 681.827Z" fill="#100F0D"/>
<path d="M654.676 690.852C654.641 690.852 654.606 690.852 654.571 690.849C648.13 690.31 642.752 687.308 638.589 681.921C628.74 669.173 628.799 647.015 629.692 641.883C629.811 641.208 630.444 640.75 631.119 640.879C631.791 640.995 632.239 641.631 632.123 642.303C631.27 647.204 631.2 668.32 640.545 680.413C644.264 685.23 649.05 687.917 654.778 688.393C655.456 688.445 655.96 689.047 655.904 689.722C655.852 690.366 655.309 690.852 654.676 690.852Z" fill="#100F0D"/>
<path d="M886.66 791.711C897.706 796.731 929.842 808.111 988.086 793.383C986.077 833.55 982.064 918.229 982.064 918.229C982.064 918.229 933.522 945.677 901.051 934.293C892.017 918.898 886.66 791.711 886.66 791.711Z" fill="#100F0D"/>
<path d="M896.604 759.932C906.313 758.592 916.788 754.898 915.784 738.831C914.78 722.767 912.104 701.679 912.104 701.679C886.997 701.347 862.225 688.291 850.844 662.519C839.463 636.748 854.525 623.36 862.894 596.584C871.266 569.808 886.997 547.717 922.145 550.061C957.294 552.401 976.036 569.137 976.036 569.137C970.012 600.6 963.987 645.115 977.041 647.795C990.098 650.471 993.446 627.379 993.446 627.379C1013.2 617.672 1033.88 629.482 1025.91 646.788C1016.21 667.875 993.11 657.164 993.11 657.164C988.425 669.215 968.675 682.599 968.675 682.599C971.687 707.371 974.686 748.342 993.432 750.683C985.731 789.842 981.732 804.098 981.732 804.098C981.732 804.098 914.444 820.498 890.009 796.402C891.013 788.034 896.604 759.932 896.604 759.932Z" fill="white"/>
<path d="M891.308 795.955C899.985 804.169 914.931 808.325 935.749 808.325C956.619 808.325 976.754 803.987 980.733 803.077C981.597 799.806 985.445 784.799 991.974 751.695C974.97 747.962 971.083 714.204 968.225 689.391C967.962 687.089 967.703 684.867 967.451 682.761C967.395 682.303 967.598 681.852 967.983 681.593C968.176 681.464 987.468 668.279 991.96 656.727C992.083 656.412 992.334 656.161 992.649 656.035C992.964 655.905 993.321 655.916 993.625 656.059C993.685 656.084 999.349 658.662 1006.04 658.662C1014.7 658.662 1021.01 654.499 1024.79 646.285C1027.08 641.31 1026.99 636.633 1024.5 632.757C1021.44 627.982 1015.23 625.131 1007.89 625.131C1003.47 625.131 998.881 626.194 994.56 628.223C993.919 631.914 990.312 649.258 979.099 649.258C978.35 649.258 977.573 649.174 976.793 649.017C965.796 646.757 965.086 620.051 974.687 569.634C971.426 567 953.148 553.378 922.058 551.303C892.854 549.362 874.437 563.799 864.074 596.966C861.673 604.634 858.675 611.341 856.033 617.256C849.333 632.246 844.04 644.081 851.968 662.034C862.282 685.382 885.329 700.102 912.118 700.459C912.731 700.466 913.249 700.924 913.326 701.537C913.35 701.746 916.02 722.844 917.013 738.765C918.066 755.644 906.727 759.65 897.644 761.039C896.727 765.688 892.354 787.958 891.308 795.955ZM935.749 810.795C913.91 810.795 898.225 806.25 889.142 797.295C888.869 797.022 888.74 796.644 888.782 796.266C889.779 787.947 895.164 760.853 895.394 759.702C895.496 759.188 895.916 758.796 896.437 758.723C905.922 757.414 915.495 754.039 914.55 738.923C913.689 725.111 911.559 707.375 911.009 702.901C883.702 702.159 860.277 686.956 849.715 663.031C841.342 644.074 846.828 631.795 853.78 616.249C856.523 610.109 859.361 603.76 861.715 596.228C872.324 562.281 892.064 546.829 922.223 548.844C957.392 551.188 976.079 567.539 976.856 568.232C977.181 568.522 977.332 568.959 977.248 569.382C968.207 616.595 968.221 644.739 977.29 646.6C977.906 646.726 978.514 646.792 979.099 646.792C989.27 646.792 992.194 627.412 992.222 627.212C992.282 626.81 992.537 626.464 992.898 626.285C997.723 623.917 1002.9 622.661 1007.89 622.661C1016.08 622.661 1023.06 625.939 1026.58 631.428C1029.49 635.979 1029.66 641.622 1027.04 647.317C1021.78 658.735 1012.71 661.128 1006.04 661.128C1000.59 661.128 995.879 659.596 993.769 658.784C988.79 669.625 973.343 680.855 969.988 683.206C970.212 685.091 970.443 687.071 970.677 689.111C973.511 713.732 977.391 747.448 993.583 749.47C993.919 749.512 994.227 749.697 994.43 749.974C994.63 750.25 994.707 750.596 994.637 750.936C987.016 789.696 982.958 804.302 982.916 804.445C982.793 804.872 982.454 805.208 982.02 805.309C981.796 805.365 959.247 810.795 935.749 810.795Z" fill="#100F0D"/>
<path d="M888.669 647.698C888.462 647.698 888.252 647.649 888.06 647.541C880.996 643.517 877.294 639.571 876.738 635.485C876.052 630.409 880.167 626.285 884.148 622.294C884.928 621.513 885.702 620.737 886.433 619.96C892.947 613.023 892.255 600.384 888.857 591.572C887.402 587.794 884.939 585.558 881.549 584.921C877.067 584.103 872.235 586.317 869.947 588.836C869.488 589.34 868.708 589.378 868.204 588.92C867.697 588.462 867.662 587.682 868.12 587.178C870.926 584.089 876.591 581.504 882 582.497C884.949 583.05 888.934 584.915 891.16 590.683C894.949 600.506 895.516 613.894 888.228 621.65C887.486 622.44 886.692 623.235 885.894 624.036C882.339 627.6 878.662 631.291 879.183 635.153C879.624 638.382 883.018 641.828 889.277 645.396C889.872 645.732 890.078 646.488 889.743 647.075C889.512 647.474 889.099 647.698 888.669 647.698Z" fill="#100F0D"/>
<path d="M949.141 605.96C948.742 605.96 948.354 605.768 948.116 605.411C935.101 586.002 921.27 588.675 914.178 592.009C913.569 592.296 912.831 592.034 912.537 591.414C912.25 590.799 912.516 590.064 913.132 589.774C919.419 586.832 935.608 582.322 950.163 604.04C950.544 604.606 950.394 605.372 949.827 605.75C949.617 605.894 949.376 605.96 949.141 605.96Z" fill="#100F0D"/>
<path d="M929.278 623.507C927.973 627.681 924.985 630.465 922.606 629.727C920.227 628.982 919.356 624.994 920.661 620.817C921.959 616.64 924.95 613.855 927.326 614.604C929.705 615.346 930.58 619.327 929.278 623.507Z" fill="#100F0D"/>
<path d="M927.95 617.344C927.418 617.344 926.924 616.997 926.771 616.459L924.535 608.871C924.342 608.217 924.717 607.534 925.368 607.342C926.032 607.15 926.711 607.517 926.9 608.175L929.136 615.762C929.328 616.417 928.954 617.102 928.303 617.295C928.184 617.326 928.065 617.344 927.95 617.344Z" fill="#100F0D"/>
<path d="M880.518 614.366C879.213 618.539 876.225 621.324 873.846 620.586C871.467 619.84 870.595 615.852 871.897 611.679C873.202 607.499 876.19 604.717 878.566 605.463C880.941 606.208 881.823 610.189 880.518 614.366Z" fill="#100F0D"/>
<path d="M879.184 608.192C878.656 608.192 878.159 607.849 878.005 607.31L875.769 599.722C875.577 599.065 875.951 598.382 876.605 598.19C877.253 597.994 877.945 598.365 878.138 599.023L880.37 606.614C880.562 607.265 880.188 607.95 879.534 608.143C879.418 608.178 879.299 608.192 879.184 608.192Z" fill="#100F0D"/>
<path d="M880.143 654.862C880.115 661.201 881.259 665.741 883.488 668.068C888.183 672.965 898.63 667.959 909.802 656.184C897.854 658.524 885.842 657.842 880.143 654.862ZM888.176 672.441C885.576 672.441 883.4 671.545 881.703 669.775C878.708 666.644 877.368 660.84 877.732 652.532C877.753 652.053 878.051 651.629 878.491 651.447C878.932 651.262 879.443 651.35 879.796 651.675C881.563 653.291 886.752 655.177 895.551 655.177C901.041 655.177 907.09 654.407 913.038 652.948C913.57 652.819 914.109 653.046 914.385 653.504C914.665 653.966 914.613 654.554 914.259 654.96C904.494 666.067 894.988 672.441 888.176 672.441Z" fill="#100F0D"/>
<path d="M882.985 670.22C882.775 670.22 882.561 670.164 882.369 670.055C881.778 669.716 881.571 668.96 881.914 668.372C884.814 663.324 896.595 660.18 903.631 662.562C904.274 662.779 904.624 663.482 904.404 664.126C904.187 664.769 903.48 665.112 902.84 664.899C896.472 662.737 886.203 665.857 884.052 669.6C883.821 669.996 883.408 670.22 882.985 670.22Z" fill="#100F0D"/>
<path d="M911.582 703.023C910.858 703.016 910.207 702.516 910.207 701.785C910.211 701.102 910.76 700.557 911.442 700.557C911.495 700.55 911.54 700.557 911.585 700.557C924.087 700.557 944.232 693.35 957.724 686.2C958.329 685.878 959.074 686.105 959.392 686.707C959.711 687.312 959.483 688.057 958.882 688.376C945.114 695.67 924.485 703.023 911.582 703.023Z" fill="#100F0D"/>
<path d="M693.844 763.925C699.533 765.933 727.32 765.933 749.747 753.213C753.428 773.629 767.153 834.544 767.153 834.544C786.235 813.792 812.675 789.361 824.729 778.985C836.782 768.609 855.192 758.565 873.267 759.237C891.345 759.905 900.715 758.901 900.715 758.901C900.715 758.901 886.324 784.341 893.689 854.96C901.05 925.583 903.395 934.955 903.395 934.955L878.623 932.611C878.623 932.611 883.644 916.883 868.582 898.807C853.516 880.732 849.164 869.352 847.156 855.964C831.089 872.368 788.24 917.883 752.423 918.219C716.607 918.552 703.885 886.424 698.864 846.26C693.844 806.096 693.844 763.925 693.844 763.925Z" fill="#FF0025"/>
<path d="M969.694 917.778C959.653 920.79 916.461 933.615 896.71 932.275C876.96 930.935 856.541 921.228 840.471 925.247C824.405 929.263 796.845 949.511 798.798 957.543C800.306 963.735 807.667 960.391 807.667 960.391C810.347 966.079 815.704 963.067 815.704 963.067C818.38 968.759 830.769 965.411 838.131 959.051C845.495 952.691 854.533 949.343 865.918 953.363C877.296 957.379 895.034 963.067 915.789 964.071C936.547 965.075 985.421 962.794 985.421 962.794C985.421 962.794 992.789 933.846 969.694 917.778Z" fill="white"/>
<path d="M815.699 961.846C815.825 961.846 815.955 961.863 816.077 961.905C816.403 962.01 816.668 962.241 816.812 962.549C817.673 964.375 819.898 964.756 821.619 964.756C826.346 964.756 832.801 962.031 837.322 958.127C846.233 950.427 855.788 948.489 866.323 952.208C878.929 956.658 895.95 961.888 915.848 962.85C919.329 963.018 923.863 963.102 929.318 963.102C950.093 963.102 978.85 961.863 984.409 961.615C985.361 956.749 988.814 933.024 969.469 919.142C949.999 924.96 914.224 934.717 896.622 933.517C888.774 932.985 880.843 931.149 873.177 929.378C864.587 927.395 856.47 925.523 848.99 925.523C845.964 925.523 843.273 925.828 840.768 926.454C824.607 930.491 798.31 950.358 799.99 957.263C800.459 959.177 801.589 960.072 803.555 960.072C805.371 960.072 807.138 959.285 807.155 959.275C807.771 959.005 808.495 959.268 808.779 959.876C809.657 961.734 810.889 962.64 812.54 962.64C813.915 962.64 815.087 962.003 815.098 962C815.283 961.895 815.489 961.846 815.699 961.846ZM821.619 967.223C818.11 967.223 816.217 965.974 815.202 964.63C814.524 964.868 813.583 965.11 812.54 965.11C810.899 965.11 808.698 964.526 807.092 961.93C806.218 962.213 804.92 962.539 803.555 962.539C800.452 962.539 798.331 960.87 797.593 957.844C795.263 948.252 824.744 927.916 840.17 924.058C842.874 923.386 845.757 923.057 848.99 923.057C856.754 923.057 865 924.96 873.733 926.979C881.308 928.728 889.142 930.536 896.79 931.054C914.168 932.254 950.181 922.354 969.333 916.61C969.693 916.501 970.089 916.564 970.393 916.778C993.919 933.139 986.69 962.811 986.61 963.109C986.48 963.637 986.015 964.011 985.473 964.036C985.144 964.053 952.354 965.568 929.318 965.568C923.821 965.568 919.248 965.484 915.725 965.313C895.513 964.333 878.268 959.04 865.504 954.535C855.816 951.12 847.167 952.88 838.935 959.995C834.001 964.253 826.881 967.223 821.619 967.223Z" fill="#100F0D"/>
<path d="M1026.91 906.5L1029.26 878.388L1036.96 904.495L1026.91 906.5ZM1121.31 894.116C1106.58 854.624 1093.86 811.784 1081.81 792.369C1069.76 772.957 1055.37 754.885 1028.59 752.205C1009.17 750.865 991.763 750.197 991.763 750.197C985.403 766.933 964.987 847.932 975.697 915.875C971.009 915.875 967.664 918.552 967.664 918.552C978.374 927.255 984.399 942.983 981.722 964.071C1028.25 967.751 1077.46 960.387 1093.53 956.371C1109.59 952.359 1136.04 933.615 1121.31 894.116Z" fill="#FF0025"/>
<path d="M675.878 665.969C675.231 665.969 674.689 665.465 674.647 664.811C674.605 664.136 675.123 663.548 675.802 663.506C678.1 663.363 680.868 663.1 683.884 662.817C693.999 661.858 706.591 660.679 714.116 662.618C714.774 662.789 715.169 663.461 715.002 664.118C714.83 664.779 714.162 665.175 713.497 665.007C706.381 663.167 694.037 664.335 684.115 665.273C681.071 665.556 678.275 665.822 675.955 665.965C675.931 665.969 675.903 665.969 675.878 665.969Z" fill="#100F0D"/>
<path d="M848.146 862.891C847.573 862.891 847.058 862.485 846.939 861.901C844.704 850.703 847.205 836.342 850.679 827.086C850.917 826.449 851.631 826.113 852.268 826.365C852.905 826.603 853.23 827.313 852.985 827.954C850.49 834.618 846.908 849.164 849.357 861.414C849.49 862.086 849.059 862.737 848.391 862.866C848.311 862.884 848.227 862.891 848.146 862.891Z" fill="#100F0D"/>
<path d="M968.413 918.898C967.867 918.898 967.367 918.534 967.22 917.981C967.048 917.323 967.44 916.645 968.098 916.473C978.923 913.608 1046.75 900.301 1070.66 898.251C1071.33 898.191 1071.94 898.695 1072 899.374C1072.06 900.056 1071.55 900.651 1070.88 900.707C1047.06 902.75 979.515 916.001 968.728 918.859C968.623 918.884 968.514 918.898 968.413 918.898Z" fill="#100F0D"/>
<path d="M1030.94 883.981C1030.41 883.981 1029.93 883.645 1029.76 883.124C1027.34 875.554 1021.38 851.671 1018.52 840.197L1017.69 836.859C1017.52 836.198 1017.92 835.53 1018.58 835.362C1019.24 835.198 1019.91 835.6 1020.08 836.261L1020.92 839.598C1023.77 851.048 1029.71 874.882 1032.11 882.372C1032.32 883.019 1031.96 883.719 1031.31 883.925C1031.19 883.963 1031.06 883.981 1030.94 883.981Z" fill="#100F0D"/>
<path d="M815.685 964.305C815.65 964.305 815.611 964.305 815.573 964.302C814.894 964.239 814.394 963.64 814.457 962.962C814.862 958.481 832.888 943.441 849.154 938.799C849.815 938.6 850.494 938.992 850.679 939.642C850.868 940.296 850.49 940.982 849.832 941.168C833.465 945.841 817.175 960.282 816.913 963.186C816.857 963.826 816.314 964.305 815.685 964.305Z" fill="#100F0D"/>
<path d="M807.655 961.636C806.973 961.636 806.42 961.083 806.42 960.401C806.42 953.968 819.929 940.401 841.096 933.786C841.761 933.58 842.436 933.947 842.643 934.594C842.845 935.245 842.482 935.934 841.834 936.14C820.097 942.931 808.886 956.224 808.886 960.401C808.886 961.083 808.337 961.636 807.655 961.636Z" fill="#100F0D"/>
<path d="M895.02 959.436H789.308L746.771 835.209C743.058 824.378 730.652 815.514 719.2 815.514H538.675C527.231 815.514 520.895 824.378 524.603 835.209L568.425 963.179C573.218 975.601 573.782 985.83 586.237 985.83H895.02C902.308 985.83 908.217 979.918 908.217 972.628C908.217 965.341 902.308 959.436 895.02 959.436Z" fill="#F9C1C0"/>
<path d="M779.991 962.955H570.034C569.352 962.955 568.799 962.402 568.799 961.72C568.799 961.037 569.352 960.488 570.034 960.488H779.991C780.669 960.488 781.222 961.037 781.222 961.72C781.222 962.402 780.669 962.955 779.991 962.955Z" fill="#100F0D"/>
<path d="M642.847 880.091C639.74 880.091 637.169 881.323 635.423 883.656C632.886 887.025 632.365 892.178 633.992 897.8C636.917 907.941 645.891 916.19 653.987 916.19C657.091 916.19 659.655 914.959 661.408 912.629C663.945 909.253 664.463 904.1 662.839 898.485C659.918 888.344 650.947 880.091 642.847 880.091ZM653.987 918.66C644.866 918.66 634.832 909.606 631.62 898.482C629.776 892.111 630.444 886.171 633.446 882.176C635.654 879.238 638.992 877.625 642.847 877.625C651.972 877.625 662.003 886.679 665.208 897.803C667.052 904.166 666.387 910.11 663.378 914.109C661.174 917.044 657.839 918.66 653.987 918.66Z" fill="#100F0D"/>
<path d="M603.174 463.213C589.197 464.493 581.258 473.176 582.661 497.881C584.06 522.593 578.462 548.095 588.255 557.652C598.048 567.223 622.757 567.227 645.607 567.622C668.454 568.018 698.046 567.346 706.807 567.223C727.439 566.923 734.78 563.34 737.579 547.196C739.227 537.695 735.273 484.094 735.133 478.458C734.78 464.409 725.69 462.615 705.757 461.719C686.644 460.859 616.231 462.016 603.174 463.213Z" fill="#9FC3FF"/>
<path d="M659.301 528.613C659.21 528.613 659.116 528.613 659.025 528.613C649.193 528.463 641.195 520.193 635.328 513C624.485 499.7 600.088 472.434 594.161 467.369C593.644 466.925 593.581 466.144 594.025 465.627C594.466 465.109 595.243 465.053 595.76 465.494C601.768 470.626 626.343 498.077 637.242 511.437C642.77 518.216 650.246 526.014 659.063 526.147C665.372 526.185 671.963 522.358 678.674 514.62C697.144 493.312 724.553 466.473 724.826 466.204C725.316 465.728 726.099 465.739 726.568 466.225C727.048 466.711 727.037 467.491 726.551 467.971C726.278 468.236 698.942 495.005 680.539 516.233C673.321 524.558 666.369 528.613 659.301 528.613Z" fill="#100F0D"/>
<path d="M588.258 558.891C587.804 558.891 587.37 558.643 587.153 558.205C586.848 557.597 587.1 556.859 587.709 556.554C590.914 554.956 607.271 539.521 619.212 528.253C629.103 518.916 634.764 513.595 636.107 512.773C636.688 512.417 637.447 512.602 637.801 513.186C638.158 513.763 637.976 514.523 637.391 514.879C636.209 515.603 628.774 522.618 620.902 530.048C604.724 545.318 592.086 557.131 588.808 558.758C588.633 558.849 588.444 558.891 588.258 558.891Z" fill="#100F0D"/>
<path d="M727.674 562.872C727.254 562.872 726.841 562.655 726.61 562.263C725.823 560.927 716.635 550.974 707.749 541.35C696.021 528.644 683.891 515.509 682.057 512.598C681.693 512.021 681.868 511.258 682.442 510.894C683.023 510.53 683.782 510.709 684.143 511.279C685.857 514.004 698.452 527.644 709.564 539.678C720.883 551.936 727.863 559.524 728.738 561.014C729.084 561.605 728.888 562.357 728.297 562.704C728.101 562.819 727.887 562.872 727.674 562.872Z" fill="#100F0D"/>
</g>
<defs>
<clipPath id="clip0_101_51">
<rect width="1403" height="1011" fill="white"/>
</clipPath>
</defs>
</svg>
