<svg width="5903" height="1707" viewBox="0 0 5903 1707" fill="none" xmlns="http://www.w3.org/2000/svg">
<path d="M3280.13 2.66709C3215.6 16.8004 3170.4 69.0671 3167.07 133.6C3165.2 169.467 3175.87 203.067 3198 230.934C3209.6 245.734 3221.07 255.067 3243.87 268.4C3245.2 269.2 3220.13 284.134 3160.8 318.134C3104.8 350.134 3073.33 368.8 3068.8 372.934C3051.87 388.134 3045.47 414.4 3053.2 437.067C3058.53 452.4 3068.4 463.334 3083.87 471.067C3092.53 475.334 3095.07 476 3106 476.4C3114.93 476.8 3120.4 476.4 3126.13 474.667C3131.33 473.2 3159.33 457.867 3207.07 430.4L3280 388.4L3280.13 289.6C3280.13 216.667 3280.53 189.467 3281.73 186C3284.27 178.534 3289.6 176.667 3308.13 176.667C3316.67 176.667 3325.47 177.334 3327.73 178.134C3336.4 181.067 3336 177.2 3336 270.667C3336 317.2 3336.27 355.334 3336.67 355.334C3337.2 355.334 3387.6 326.534 3448.93 291.2C3564.53 224.667 3564.53 224.667 3572.13 228.8C3573.87 229.734 3670.8 284.8 3787.33 351.2C3904 417.467 4002.67 472.934 4006.67 474.4C4012.4 476.4 4016.67 476.8 4026.67 476.4C4037.87 476 4040.53 475.334 4049.47 471.2C4067.73 462.4 4079.47 446.8 4082.93 426.267C4086.13 407.067 4080.13 388.534 4066.13 374.667C4058.8 367.467 4035.33 353.734 3825.87 234.267C3698.13 161.467 3590.4 100.667 3586.53 99.0671C3576.93 95.3337 3558.4 95.0671 3548.4 98.4004C3544.53 99.7337 3521.07 112.534 3496 126.8C3471.07 141.067 3450.4 152.667 3450 152.667C3449.6 152.667 3449.33 146.667 3449.33 139.467C3449.33 87.6004 3418.93 38.6671 3372.53 15.4671C3350.53 4.53375 3333.2 0.667086 3307.07 0.800419C3296.8 0.800419 3284.93 1.73375 3280.13 2.66709ZM3260 68.6671C3263.73 72.4004 3263.33 75.4671 3258.27 81.4671C3246.93 94.6671 3241.47 108.134 3240.4 124.667C3239.33 143.2 3244.13 158.8 3255.6 173.467C3262.8 182.534 3262.93 182.934 3261.2 186.267C3257.33 193.734 3252.53 193.067 3244.13 184C3231.47 170.134 3223.87 149.867 3223.87 130C3223.73 107.067 3231.6 86.8004 3247.07 70.2671C3251.73 65.3337 3256.13 64.8004 3260 68.6671ZM3374.4 73.4671C3396.27 98.0004 3401.2 134.667 3386.8 165.334C3382.13 175.2 3371.87 189.067 3367.73 190.934C3363.6 192.8 3359.07 190.934 3357.07 186.667C3355.73 183.734 3356 182.667 3358.4 179.6C3372.53 161.734 3377.33 150.4 3378.27 133.2C3379.47 114 3375.33 100.8 3362.8 84.1337C3359.07 79.0671 3356 74.4004 3356 73.7337C3356 71.4671 3362.53 66.0004 3365.2 66.0004C3366.67 66.0004 3370.67 69.2004 3374.4 73.4671ZM3287.33 93.3337C3291.73 97.6004 3291.6 99.3337 3285.47 106.667C3279.6 113.867 3277.33 120.134 3277.33 129.867C3277.33 138.134 3279.33 143.467 3285.87 151.867C3288.53 155.334 3290.67 158.8 3290.67 159.467C3290.67 161.6 3284.27 167.334 3281.87 167.334C3280.53 167.334 3276.67 164.4 3273.2 160.8C3260.4 147.467 3256.93 126.8 3264.93 109.867C3269.33 100.4 3278.27 90.0004 3281.87 90.0004C3283.07 90.0004 3285.6 91.4671 3287.33 93.3337ZM3343.73 94.4004C3352.8 102.667 3359.73 121.067 3358.13 133.067C3356.67 143.6 3352.27 153.334 3345.73 160.667C3338.67 168.534 3334.67 169.067 3330.27 163.067L3327.47 159.334L3331.87 153.734C3339.6 143.467 3341.6 137.467 3341.07 126.667C3340.67 118.667 3340 116.134 3336.67 111.334C3329.47 101.067 3328.93 99.8671 3329.73 96.4004C3330.67 92.8004 3335.47 90.0004 3338.67 91.0671C3339.73 91.4671 3342 92.9337 3343.73 94.4004ZM3316.13 121.867C3318.27 124 3320 126.934 3320 128.4C3320 132.8 3313.6 139.334 3309.33 139.334C3305.2 139.334 3298.67 132.934 3298.67 128.8C3298.67 124 3304.8 118.4 3310.4 118.134C3311.47 118 3314 119.734 3316.13 121.867Z" fill="#EA4335"/>
<path d="M1978.13 158.667C1952 186.267 1928.4 212 1925.87 216C1914.53 232.934 1914.53 253.867 1925.73 268.267C1929.07 272.667 2029.33 356.667 2031.07 356.667C2032.8 356.667 2128.27 253.734 2131.6 248.267C2142.4 230.8 2141.87 211.334 2130 195.867C2127.6 192.667 2044.8 123.467 2027.2 109.734C2026.13 108.934 2010.27 124.8 1978.13 158.667Z" fill="#EA4335"/>
<path d="M1681.73 114C1622.4 121.6 1590.13 154.8 1584.13 215.2C1583.2 223.867 1582.67 283.867 1582.67 379.867V530.667L1576.67 517.334C1554.8 468.8 1519.87 433.067 1476 414.534C1424.8 392.934 1352.8 391.467 1295.07 410.8C1202.4 441.734 1139.07 524.8 1114.67 647.334C1102.13 710.667 1101.2 792.667 1112.53 859.467C1132.4 976.934 1189.73 1061.07 1274.4 1097.07C1335.6 1123.2 1419.6 1124.93 1480.93 1101.47C1521.33 1086 1556.93 1056.27 1578.13 1020.13C1580.93 1015.33 1583.73 1011.33 1584.27 1011.33C1584.8 1011.33 1585.33 1013.07 1585.33 1015.2C1585.33 1021.87 1591.6 1043.87 1596.4 1054.13C1609.87 1083.07 1632.8 1099.47 1669.33 1106.13C1682.4 1108.53 1727.73 1108.53 1741.33 1106.13C1755.73 1103.6 1770.53 1099.87 1781.33 1095.87L1790.67 1092.4V611.2V130.134L1787.07 128.134C1780 124.534 1760.67 119.2 1745.33 116.534C1727.73 113.467 1695.87 112.267 1681.73 114ZM1485.6 559.867C1509.6 566.534 1528.8 577.334 1544.67 593.334C1560.67 609.2 1570.8 626.667 1578.27 650.667L1582 662.667L1582.4 759.2C1582.8 852.667 1582.67 856 1580 866.534C1568.93 910.934 1531.07 946.534 1483.33 957.467C1468.27 961.067 1439.33 960.667 1425.07 956.934C1382.53 945.467 1353.47 918.667 1334.4 873.067C1310 814.667 1308.13 718.267 1330.27 654.934C1348.53 602.134 1383.33 567.867 1428 558.534C1439.73 556.134 1475.2 556.934 1485.6 559.867Z" fill="#EA4335"/>
<path d="M58.6667 146C43.2 148 23.3333 152.533 11.0667 156.933L0 160.933L0.266667 591.067L0.666667 1021.33L4.13333 1034C12.9333 1065.73 28.8 1086.4 54.4 1099.2C68 1106 79.4667 1109.47 97.6 1112.13C130.4 1116.93 179.467 1111.2 206.4 1099.33L212 1096.8V683.067C212 420.133 211.467 262.933 210.667 251.867C208.933 230 205.733 216.667 198.133 201.333C184.533 173.6 159.733 155.867 123.867 148C112 145.467 73.2 144.267 58.6667 146Z" fill="#EA4335"/>
<path d="M2319.33 145.467C2296.8 148.667 2279.33 152.667 2266.93 157.6L2258.67 160.933L2259.07 593.2C2259.47 1064.93 2258.93 1028.27 2266.53 1050.4C2283.33 1098.93 2328.13 1123.07 2396 1120.27C2424.27 1119.07 2446.93 1114.53 2464.93 1106.67L2472 1103.47V914.133V724.667L2641.07 724.933L2810 725.333L2810.67 876.667L2811.47 1028L2814.4 1039.33C2823.6 1074.13 2846.27 1099.6 2878.27 1111.33C2897.07 1118.13 2909.73 1120 2938.67 1119.87C2971.33 1119.87 2990.27 1116.8 3013.73 1107.73L3022.67 1104.27V674.667C3022.67 291.2 3022.4 243.733 3020.53 234C3009.33 174.533 2968 144.667 2896.93 144.667C2867.87 144.667 2836.13 150 2817.33 158.133L2810.67 160.933V349.467V538H2641.33H2472.13L2471.6 388.933C2471.2 242.533 2471.2 239.867 2468.4 228.533C2457.6 184.8 2430 158 2385.33 148C2375.73 145.867 2329.47 144 2319.33 145.467Z" fill="#EA4335"/>
<path d="M3361.33 377.333L3159.33 493.6L3158.93 791.467C3158.8 1000 3159.07 1091.47 3160.13 1096.27C3163.6 1113.47 3179.2 1133.6 3194.67 1141.07C3211.6 1149.2 3184.4 1148.67 3572.67 1148.67C3963.73 1148.67 3935.6 1149.2 3952.53 1140.27C3969.47 1131.33 3983.07 1112.53 3986.53 1093.47C3987.6 1087.87 3988 996 3988 793.333V501.2L3776.8 380.933C3660.67 314.8 3565.07 260.667 3564.4 260.8C3563.87 260.8 3472.4 313.333 3361.33 377.333ZM3627.47 397.2C3675.47 403.6 3712.8 414.8 3752.13 434.8C3871.87 495.733 3938.4 622.933 3930.53 776.533C3927.87 829.067 3917.47 874.667 3898.4 918C3854.67 1017.2 3767.6 1085.07 3656.4 1106.53C3624.4 1112.67 3616 1113.33 3572.67 1113.33C3526.27 1113.33 3507.33 1111.33 3472 1102.53C3421.73 1090.27 3374.13 1066.93 3337.07 1036.53C3302.27 1008 3273.87 971.6 3253.2 929.333C3216 852.933 3205.07 756.933 3223.33 666.667C3254.53 511.6 3370.27 410.8 3534.67 395.333C3552.27 393.733 3609.73 394.8 3627.47 397.2Z" fill="#EA4335"/>
<path d="M3548.67 554.133C3519.6 558.267 3490.4 573.2 3472.67 592.933C3450.13 618 3435.73 652 3428.53 697.333C3425.73 715.733 3424.53 769.067 3426.53 790.8C3432 848.8 3447.6 889.2 3475.33 917.333C3488.67 930.933 3498.4 937.867 3513.47 944.267C3531.73 952.267 3542.13 954.267 3568 954.933C3588.27 955.467 3593.07 955.2 3605.33 952.667C3668.93 939.6 3706.4 890.533 3718.27 804.667C3721.47 781.467 3721.47 726.533 3718.27 703.333C3706 614.933 3665.73 564.667 3599.07 554.667C3584.93 552.533 3561.47 552.267 3548.67 554.133Z" fill="#EA4335"/>
<path d="M746.933 398C706.4 401.333 669.333 413.733 638.533 434.133C622.533 444.8 598.133 469.066 587.467 485.066C583.2 491.466 576.533 503.066 572.667 510.8L565.733 524.933L564.933 511.866C564 494.8 560.133 480.266 552.8 465.333C545.467 450.533 537.333 440.133 526.4 431.466C497.733 408.8 456.133 401.466 404.667 410C390 412.533 370.667 417.866 363.733 421.466L360 423.466V764V1104.67H463.333H566.533L567.067 880.933C567.467 671.6 567.6 656.666 569.867 647.466C580.4 603.333 607.6 574.266 650.267 561.066C661.2 557.733 663.733 557.466 686.667 557.466C714.933 557.333 721.733 558.533 739.6 567.333C763.333 579.066 779.733 601.733 787.867 634.266C793.867 658.266 793.733 653.2 794.267 883.6L794.8 1104.67H898.133H1001.47L1000.93 860.266C1000.53 597.466 1000.8 609.066 993.867 575.6C973.6 477.066 906.933 413.333 810.533 400.133C792 397.6 763.867 396.666 746.933 398Z" fill="#EA4335"/>
<path d="M4491.73 398C4410.8 404.666 4347.2 447.2 4318 514C4315.87 518.8 4313.73 523.2 4313.07 523.866C4312.53 524.666 4312 520.4 4312 514.533C4312 500.666 4310 489.066 4305.47 475.6C4293.33 440.4 4264.93 417.466 4223.33 409.2C4206.4 405.866 4172.8 406.133 4152 409.866C4136.67 412.533 4117.2 418 4110.4 421.466L4106.67 423.466V764V1104.67H4210H4313.33V887.333C4313.33 741.866 4313.87 665.6 4314.8 657.066C4320.4 606.533 4349.2 570.933 4394 559.2C4408.93 555.333 4435.07 555.333 4449.73 559.2C4483.73 568.133 4507.87 594 4519.33 633.6C4527.6 662.133 4527.2 648.533 4527.6 886.933L4528.13 1104.67H4630.67H4733.33L4733.6 876.933L4734 649.333L4737.07 638.8C4747.33 602.666 4772.53 574.4 4804.8 563.333C4826.67 555.733 4856.53 554 4876.13 559.2C4913.73 569.066 4934.53 595.333 4944.27 645.333C4947.2 659.866 4947.2 661.2 4947.6 882.266L4948.13 1104.67H5051.47H5154.8L5154.27 854.933C5153.87 583.066 5154.27 599.6 5146.67 566.666C5140.4 539.733 5128.27 511.333 5113.2 488.666C5096.53 463.6 5065.47 436.133 5038.13 422.4C4974.13 390.133 4884.93 388.666 4821.47 418.8C4774.8 440.8 4736.67 483.466 4715.6 536.666L4713.2 542.666L4708.8 531.866C4682.67 468 4640.93 426.4 4584.13 407.733C4557.87 399.2 4522.8 395.466 4491.73 398Z" fill="#EA4335"/>
<path d="M5563.07 398C5465.47 404.667 5384.93 444.4 5330.27 512.667C5292.8 559.467 5268.67 619.734 5259.07 691.334C5255.73 715.867 5255.73 785.2 5259.07 810C5270.8 896.534 5301.87 964.8 5353.6 1017.87C5424.53 1090.53 5526.13 1124.53 5649.33 1116.8C5749.47 1110.53 5821.33 1082.67 5856.27 1036.67C5883.87 1000.4 5887.6 948.267 5865.07 914.667C5854.53 898.8 5839.47 887.6 5819.47 880.667L5812.27 878.267L5805.47 887.2C5796.93 898.8 5777.47 917.2 5765.6 925.2C5721.6 954.4 5658.8 965.734 5598.13 955.334C5530.27 943.734 5484.4 904.134 5470 844.534C5468.27 837.467 5466.53 827.6 5466.13 822.534C5465.6 817.467 5464.93 810.134 5464.53 806.267L5463.87 799.334H5681.07H5898.4L5899.2 793.6C5904.13 760.267 5903.6 691.2 5898 651.6C5877.6 506.8 5782.13 415.067 5635.33 399.467C5616.93 397.467 5581.2 396.8 5563.07 398ZM5608.67 547.334C5663.47 552.134 5698.8 581.067 5714.13 633.867C5717.47 645.467 5721.87 674.667 5720.53 676.8C5719.73 678.267 5465.73 678.4 5464.93 676.934C5463.87 674.934 5466.8 650.267 5469.47 639.6C5483.2 584.134 5524.53 551.067 5585.33 546.934C5588.67 546.667 5592 546.4 5592.67 546.267C5593.47 546.134 5600.67 546.667 5608.67 547.334Z" fill="#EA4335"/>
<path d="M1925.33 706.266C1925.33 960.266 1925.6 1004.53 1927.33 1015.73C1937.07 1080 1980.4 1111.2 2056 1108.27C2083.6 1107.2 2109.07 1102.27 2126.27 1094.53L2133.33 1091.47V750.8V410H2029.33H1925.33V706.266Z" fill="#EA4335"/>
<path d="M4092 1456.27C4092 1646.4 4091.87 1642 4098.67 1655.47C4107.73 1673.07 4129.07 1682.13 4154.93 1679.33C4164.27 1678.27 4176.8 1674.8 4179.07 1672.8C4179.6 1672.27 4178.53 1669.07 4176.67 1665.73C4174.8 1662.4 4172 1654.93 4170.4 1649.2L4167.33 1638.67L4166.67 1474.67C4166 1310.67 4166 1310.67 4163.2 1304.53C4159.2 1296 4151.47 1287.87 4143.47 1283.6C4137.07 1280.27 4135.47 1280 4114.4 1279.6L4092 1279.07V1456.27Z" fill="#EA4335"/>
<path d="M4220 1477.33V1675.33H4256.67H4293.33L4293.6 1611.73L4294 1548.13L4341.07 1603.07C4367.07 1633.33 4390.67 1660 4393.73 1662.27C4401.2 1667.73 4411.2 1672.27 4419.33 1674C4423.2 1674.8 4439.6 1675.2 4458.53 1675.07L4491.07 1674.67L4438.67 1614.27C4409.87 1580.93 4383.87 1552 4380.8 1549.73C4374.27 1544.93 4365.6 1540.8 4357.47 1538.67C4354.13 1537.87 4351.33 1536.53 4351.07 1535.73C4350.8 1535.07 4354.27 1533.07 4358.67 1531.47C4374.4 1525.73 4380 1520 4429.73 1459.33C4455.33 1428.13 4477.33 1401.07 4478.8 1398.93L4481.47 1395.33H4438.93H4396.27L4346 1456.93C4318.4 1490.93 4295.2 1518.8 4294.53 1519.07C4293.87 1519.33 4293.33 1471.87 4293.33 1399.47V1279.33H4256.67H4220V1477.33Z" fill="#EA4335"/>
<path d="M5814.67 1456.67C5814.67 1581.2 5815.07 1636 5816.13 1640.93C5818.13 1650.27 5824.67 1662.4 5830.53 1667.6C5841.33 1677.2 5859.07 1681.6 5877.2 1679.2C5885.87 1678.13 5898.13 1675.07 5901.6 1673.07C5902.13 1672.8 5900.8 1668.93 5898.67 1664.67C5889.73 1646.93 5890.13 1657.07 5889.33 1476L5888.67 1312L5884.27 1303.07C5879.07 1292.53 5871.87 1285.87 5861.73 1282C5855.73 1279.73 5851.33 1279.33 5834.67 1279.33H5814.67V1456.67Z" fill="#EA4335"/>
<path d="M3583.2 1292.67C3569.47 1295.47 3558.53 1304.27 3552.53 1317.2C3549.6 1323.47 3549.33 1325.73 3549.33 1346.27V1368.67H3604.67H3660V1499.6C3660 1641.07 3660 1640.93 3667.07 1654.93C3676.13 1672.8 3698.27 1682.27 3723.87 1679.33C3734.67 1678 3747.47 1674.67 3748.67 1672.8C3748.93 1672.13 3747.6 1667.73 3745.33 1663.2C3736.67 1644.4 3736.93 1650.53 3736.13 1492.67L3735.33 1349.33L3732.4 1341.6C3723.73 1318.67 3706.27 1302.13 3682.67 1294.53C3676.4 1292.53 3669.07 1292.13 3632 1291.87C3608.13 1291.73 3586.13 1292 3583.2 1292.67Z" fill="#EA4335"/>
<path d="M3711.2 1292.8C3710.27 1294.4 3710 1294.13 3720.27 1301.87C3733.87 1312 3743.47 1327.33 3748.27 1346.53C3754 1369.33 3752.4 1368.67 3799.33 1368.67C3830.13 1368.67 3836.8 1368.27 3840.13 1366.53C3847.33 1362.93 3848 1358.93 3848 1323.33V1291.33H3780.13C3732.67 1291.33 3711.87 1291.73 3711.2 1292.8Z" fill="#EA4335"/>
<path d="M3902.93 1392.67C3854.13 1399.6 3812.93 1431.33 3795.47 1475.73C3776.13 1524.67 3782 1584.8 3809.87 1623.87C3832.67 1655.87 3870.93 1675.47 3918.13 1679.2C3955.47 1682.13 3989.33 1675.6 4020.4 1659.73L4032 1653.73V1621.87C4032 1604.4 4031.73 1590 4031.6 1590C4031.33 1590 4026.27 1592.93 4020.27 1596.53C4006.67 1604.67 3990.53 1611.47 3975.2 1615.47C3959.73 1619.6 3927.07 1620 3913.33 1616.27C3889.6 1609.87 3872.53 1596.53 3862.93 1576.53C3859.87 1570.4 3857.07 1563.33 3856.67 1560.93L3855.73 1556.67H3952.4H4049.07L4049.87 1552.93C4052.93 1536.53 4051.47 1507.47 4046.53 1487.33C4032.13 1429.47 3988 1394 3928 1392C3918.8 1391.73 3907.6 1392 3902.93 1392.67ZM3945.87 1452.4C3950.53 1454.67 3957.2 1458.93 3960.4 1461.87C3969.47 1470.27 3977.73 1487.47 3978.93 1500.67L3979.33 1505.33L3918.8 1505.73L3858.4 1506L3859.2 1501.07C3860.8 1491.6 3870.4 1474.27 3878.53 1466.27C3892.13 1452.53 3906.4 1447.07 3925.6 1447.87C3935.07 1448.27 3938.67 1449.07 3945.87 1452.4Z" fill="#EA4335"/>
<path d="M4595.33 1392.8C4538.27 1400.53 4494.53 1436.13 4478.27 1488C4473.2 1504.27 4471.47 1516.93 4471.47 1536.67C4471.6 1573.6 4482 1603.87 4503.47 1630.13C4540.53 1675.47 4612.27 1692.4 4673.2 1670.13C4726.67 1650.53 4759.87 1603.07 4762.27 1542.53C4764 1498.8 4751.33 1463.2 4723.47 1434.13C4704 1413.87 4679.87 1401.07 4649.33 1394.67C4637.07 1392 4608 1391.07 4595.33 1392.8ZM4635.47 1458.53C4658 1464.53 4675.87 1482 4683.6 1505.33C4688.27 1519.73 4689.33 1542.53 4686 1557.2C4677.73 1594.67 4648.13 1617.47 4611.47 1614.93C4580.4 1612.8 4557.07 1592.67 4548.4 1560.53C4545.2 1548.8 4545.2 1523.07 4548.4 1511.33C4555.47 1484.8 4573.87 1465.07 4597.73 1458.67C4606.67 1456.27 4626.8 1456.13 4635.47 1458.53Z" fill="#EA4335"/>
<path d="M4935.33 1392.53C4911.47 1396.53 4891.47 1408.67 4882.67 1424.53C4880.8 1427.73 4878.8 1430.53 4878.27 1430.53C4877.73 1430.67 4875.87 1427.33 4874.13 1423.2C4870.53 1414.13 4867.07 1409.47 4860.13 1404.4C4851.07 1397.73 4845.07 1396.4 4823.07 1395.6L4802.67 1395.07V1535.2V1675.33H4840H4877.2L4877.6 1592.27C4878.13 1501.07 4877.87 1503.73 4886.67 1484.93C4891.33 1474.93 4902 1463.87 4911.33 1459.33C4917.07 1456.4 4919.87 1456 4932 1456C4944.67 1456 4946.67 1456.4 4952.8 1459.6C4960.67 1463.73 4968.67 1472.13 4972.13 1479.87C4976.8 1490.53 4977.33 1500.8 4977.33 1588.93V1675.33H5014H5050.67V1604.93C5050.67 1566.27 5051.33 1528.27 5052 1520.27C5054.4 1495.33 5061.07 1479.33 5073.87 1467.6C5082.53 1459.6 5090.53 1456.4 5102.8 1455.6C5120.8 1454.53 5134.53 1460.8 5143.6 1474.4C5151.73 1486.53 5152 1489.47 5152 1587.2V1675.33H5189.33H5226.67V1579.6C5226.67 1521.2 5226.13 1479.6 5225.33 1472.8C5219.73 1428.8 5188.67 1398.8 5142 1392.53C5102.8 1387.33 5064.67 1402.13 5042.67 1430.8L5036.4 1438.93L5032.53 1431.47C5024 1414.93 5004.53 1400.8 4983.07 1395.2C4971.47 1392.27 4946 1390.8 4935.33 1392.53Z" fill="#EA4335"/>
<path d="M5356.67 1392.8C5351.6 1393.47 5342 1395.47 5335.33 1397.33C5296.67 1408.4 5274 1431.87 5269.2 1466.27C5265.2 1494.67 5275.87 1519.33 5299.2 1536C5314 1546.53 5326.4 1551.6 5371.33 1565.33C5390.4 1571.2 5404.27 1578.13 5408.4 1583.87C5410.53 1586.93 5411.33 1589.87 5411.33 1595.6C5411.33 1602 5410.67 1603.87 5407.2 1608.27C5398.27 1619.33 5386.27 1622.67 5359.73 1621.73C5328.93 1620.53 5301.73 1610.8 5278.8 1592.67C5275.07 1589.73 5271.73 1587.33 5271.33 1587.33C5270.93 1587.33 5270.67 1602 5270.67 1619.87V1652.53L5274.4 1655.07C5286.67 1663.73 5314 1673.73 5335.33 1677.33C5352.8 1680.27 5385.6 1680.27 5402 1677.33C5450 1668.8 5477.6 1643.47 5482.53 1603.6C5486 1575.6 5476.53 1549.87 5456.8 1533.87C5442 1521.87 5425.6 1514.67 5390.27 1504.67C5362.13 1496.67 5353.73 1493.07 5346.13 1485.73C5339.73 1479.6 5339.6 1479.33 5340.27 1472.67C5341.33 1462.4 5348.4 1454.67 5359.87 1451.2C5367.73 1448.93 5387.87 1448.27 5400.4 1449.87C5421.2 1452.67 5448.67 1462.4 5461.33 1471.33C5463.33 1472.8 5465.47 1474 5465.87 1474C5466.27 1474 5466.67 1460.27 5466.67 1443.33V1412.8L5457.07 1408.13C5435.73 1398 5412.13 1392.67 5384.67 1392C5374.4 1391.73 5361.87 1392 5356.67 1392.8Z" fill="#EA4335"/>
<path d="M5630.67 1392.13C5628.8 1392.4 5623.2 1393.33 5618 1394.13C5587.87 1398.93 5557.33 1416.93 5538 1441.07C5515.73 1468.8 5505.33 1503.73 5507.07 1545.07C5510.13 1622.8 5560.4 1673.2 5641.2 1679.33C5678.4 1682.13 5714.13 1674.93 5745.73 1658.4L5754.67 1653.73V1621.87C5754.67 1604.27 5754.4 1590 5754.13 1590C5753.87 1590 5748 1593.33 5741.2 1597.33C5727.73 1605.2 5713.33 1611.33 5697.33 1615.73C5683.47 1619.47 5648.93 1619.87 5636 1616.27C5615.73 1610.8 5598.67 1599.2 5589.2 1584.53C5585.07 1577.87 5578.67 1562.4 5578.67 1558.67C5578.67 1556.93 5591.6 1556.67 5675.2 1556.67H5771.6L5772.53 1551.6C5774 1542.27 5773.33 1512 5771.33 1499.47C5766.4 1469.47 5752 1441.2 5732.93 1423.87C5717.33 1409.73 5696 1398.93 5675.33 1394.67C5664.93 1392.53 5637.47 1390.93 5630.67 1392.13ZM5659.33 1449.2C5679.2 1454.4 5693.73 1469.6 5699.33 1490.67C5700.4 1495.07 5701.33 1500.27 5701.33 1502.27V1506H5641.2H5580.93L5581.87 1500.27C5584.4 1484.93 5600.67 1462.53 5614.67 1455.33C5629.6 1447.6 5645.47 1445.47 5659.33 1449.2Z" fill="#EA4335"/>
<path d="M3156.4 1423.33C3154 1424.67 3151.07 1427.47 3149.73 1429.6C3147.47 1433.07 3147.33 1439.33 3147.33 1538.8C3147.33 1643.6 3147.33 1644.53 3150.13 1648.27C3155.87 1656.13 3166.67 1658.67 3175.6 1654.4C3181.87 1651.47 3185.33 1645.6 3185.33 1637.6C3185.33 1634.13 3185.6 1631.33 3185.87 1631.33C3186.27 1631.33 3189.73 1634.53 3193.6 1638.4C3207.33 1652.13 3222.27 1658 3243.33 1658C3265.33 1658 3281.73 1651.2 3296.93 1636C3312 1620.67 3319.33 1602.8 3320.8 1577.33C3324.27 1521.6 3289.07 1481.2 3239.33 1483.6C3219.73 1484.67 3206.93 1490.67 3192.4 1505.87L3185.33 1513.33V1473.33C3185.33 1435.6 3185.2 1433.07 3182.67 1428.93C3177.87 1420.93 3164.8 1418.13 3156.4 1423.33ZM3253.87 1521.87C3273.47 1531.47 3284.4 1554.53 3281.2 1579.87C3278.93 1597.47 3268.27 1613.07 3253.47 1620.27C3246.93 1623.47 3244.4 1624 3234 1624C3223.6 1624 3221.07 1623.47 3214.53 1620.27C3205.2 1615.73 3194.27 1604.4 3189.6 1594.4C3186.4 1587.33 3186 1585.2 3186 1571.33C3186.13 1552.8 3188.8 1544.53 3198.27 1534C3213.6 1516.93 3234.53 1512.27 3253.87 1521.87Z" fill="#EA4335"/>
<path d="M3354.8 1487.07C3348 1490.53 3344.8 1495.47 3344.8 1502.93C3344.8 1508.4 3349.6 1520 3376.8 1580.67C3412.93 1661.2 3411.2 1654.67 3400.13 1666.13C3392.27 1674.13 3387.47 1675.2 3373.33 1672C3364.8 1670 3362.27 1669.87 3358.13 1671.33C3351.07 1673.6 3347.73 1679.47 3348.4 1687.73C3349.07 1695.87 3352.67 1699.6 3363.33 1703.6C3375.2 1707.87 3397.47 1707.73 3408.67 1703.33C3418.8 1699.33 3429.47 1688.8 3436.27 1676C3438.93 1670.8 3455.87 1631.2 3473.87 1587.87C3509.2 1503.07 3509.47 1502 3504 1492.93C3497.6 1482.53 3481.47 1482 3473.6 1491.87C3472.27 1493.73 3461.6 1520.53 3450 1551.6C3438.4 1582.67 3428.53 1608.4 3428.13 1608.93C3427.73 1609.47 3418.13 1586.93 3406.8 1558.93C3380.53 1493.47 3378.67 1489.6 3372.8 1486.8C3366.93 1484 3360.53 1484.13 3354.8 1487.07Z" fill="#EA4335"/>
</svg>
