<svg xmlns="http://www.w3.org/2000/svg" viewBox="0 0 36 36" fill="none"><circle cx="18" cy="18" r="18" fill="#FFF0EE"></circle><path fill-rule="evenodd" clip-rule="evenodd" d="M21.5151 12.6722C21.5029 12.7873 21.4852 12.9053 21.4687 13.0245C22.7308 13.5537 24.0679 14.3138 24.8906 15.1251C25.1443 14.8667 25.3813 14.546 25.5008 14.2422C26.006 12.9573 25.4336 12.0265 24.5532 11.4638C21.4993 9.51207 15.1904 9.51207 12.1365 11.4638C11.2561 12.0265 10.6839 12.9573 11.1891 14.2422C11.3084 14.546 11.5454 14.8667 11.7993 15.1251C12.6218 14.3138 13.9591 13.5537 15.2213 13.0245C15.2045 12.9053 15.187 12.7873 15.1746 12.6722C16.887 12.1229 19.8029 12.1229 21.515 12.6722H21.5151ZM16.0574 15.185V13.4569C16.0574 12.7402 17.4644 12.7402 17.4644 13.4569V14.8177C17.7573 14.7747 18.0517 14.7518 18.3448 14.7518C18.6382 14.7518 18.9326 14.7745 19.2255 14.8177V13.4569C19.2255 12.7402 20.6323 12.7402 20.6323 13.4569V15.185C23.0674 16.1032 25.0956 18.3768 25.1006 20.9826C25.1065 23.9193 24.7709 25.9838 22.3268 26H18.3448H14.3631C11.919 25.9838 11.5834 23.9194 11.5893 20.9826C11.5943 18.3768 13.6225 16.1034 16.0574 15.185H16.0574ZM18.3448 16.7661C20.3652 16.7661 22.0037 18.106 22.0037 19.7583C22.0037 21.4103 20.3652 22.7502 18.3448 22.7502C16.3247 22.7502 14.6862 21.4103 14.6862 19.7583C14.6862 18.106 16.3247 16.7661 18.3448 16.7661ZM15.2586 13.3351C15.2939 13.7317 15.2622 14.1259 14.9434 14.4564C14.3574 15.0638 13.7684 15.3544 13.023 15.5673C12.6583 15.6715 12.2782 15.5367 12.0347 15.3425C12.8928 14.4818 14.1478 13.7674 15.2586 13.3351L15.2586 13.3351ZM21.4313 13.3351C21.396 13.7317 21.4275 14.1259 21.7462 14.4564C22.3323 15.0638 22.9212 15.3544 23.6666 15.5673C24.0316 15.6715 24.4116 15.5367 24.655 15.3425C23.797 14.4818 22.542 13.7674 21.4312 13.3351L21.4313 13.3351Z" fill="#FF0025"></path></svg>